<svg width="53" height="64" viewBox="0 0 53 64" fill="none" xmlns="http://www.w3.org/2000/svg">
<path d="M39.5345 38.9886C32.638 38.9886 27.0288 44.5978 27.0288 51.4943C27.0288 58.3908 32.638 63.9999 39.5345 63.9999C46.431 63.9999 52.0402 58.3908 52.0402 51.4943C52.0402 44.5978 46.431 38.9886 39.5345 38.9886ZM39.5345 62.5287C33.4483 62.5287 28.5001 57.5804 28.5001 51.4943C28.5001 45.4082 33.4483 40.4599 39.5345 40.4599C45.6206 40.4599 50.5689 45.4082 50.5689 51.4943C50.5689 57.5804 45.6206 62.5287 39.5345 62.5287Z" fill="#D4AF37"/>
<path d="M44.9221 47.0578L37.6118 54.368L34.1492 50.9055C33.8619 50.6181 33.3964 50.6181 33.109 50.9055C32.8216 51.1928 32.8216 51.6583 33.109 51.9457L37.0917 55.9285C37.2297 56.0664 37.4164 56.144 37.6118 56.144C37.8072 56.144 37.994 56.0664 38.132 55.9285L45.9649 48.0955C46.2523 47.8082 46.2523 47.3427 45.9649 47.0553C45.6776 46.7678 45.2121 46.7679 44.9247 47.0553L44.9221 47.0578Z" fill="#D4AF37"/>
<path d="M25.2072 58.8506H3.50622C2.38557 58.8506 1.47177 57.9368 1.47177 56.8162V3.50608C1.47177 2.38542 2.38557 1.47163 3.50622 1.47163H31.5719C32.6926 1.47163 33.6064 2.38542 33.6064 3.50608V9.04622C33.6064 10.9801 35.1782 12.5519 37.1121 12.5519H42.6522C43.7729 12.5519 44.6867 13.4657 44.6867 14.5864V35.7702C44.6867 36.1782 45.0143 36.5058 45.4223 36.5058C45.8303 36.5058 46.1579 36.1782 46.1579 35.7702V14.5775C46.1579 13.6408 45.793 12.7614 45.1321 12.1005L34.0631 1.03158C33.4022 0.370661 32.52 0.00574673 31.5861 0.00574673L3.50571 0C1.57182 0 0 1.57181 0 3.5057V56.8158C0 58.7468 1.57182 60.3215 3.50571 60.3215H25.2067C25.6119 60.3215 25.9424 59.9939 25.9424 59.5859C25.9424 59.1778 25.6124 58.8506 25.2072 58.8506ZM35.0779 9.04357V4.12408L42.0319 11.078H37.1124C35.9917 11.078 35.0779 10.1642 35.0779 9.04357Z" fill="#D4AF37"/>
</svg>
