<svg width="67" height="64" viewBox="0 0 67 64" fill="none" xmlns="http://www.w3.org/2000/svg">
<mask id="path-1-inside-1_33_98" fill="white">
<path d="M66.3168 59.5998H64.2683V17.781C64.2683 17.5258 64.1238 17.2934 63.894 17.1822L52.962 11.8055C52.87 11.7597 52.7683 11.7433 52.6665 11.7433C52.637 11.7433 52.6074 11.7499 52.5779 11.7531C52.5057 11.7629 52.4367 11.7826 52.3711 11.8186C52.3514 11.8284 52.3317 11.8251 52.3153 11.8349C52.3021 11.8415 52.2956 11.8578 52.2857 11.8677C52.2693 11.8808 52.2463 11.884 52.2299 11.9004L47.6733 15.8469V6.83108C47.6733 6.5562 47.5026 6.31077 47.2465 6.20932L31.3939 0.0341797C31.3774 0.0276344 31.361 0.0341793 31.3446 0.027634C31.2757 0.00799967 31.21 -0.00181792 31.1378 0.00145433C31.1082 0.00145433 31.0787 -0.00181792 31.0492 0.00145433C30.9572 0.0145442 30.8653 0.0472695 30.7832 0.0996305C30.78 0.102903 30.7767 0.102903 30.7734 0.102903L22.5597 5.74138C22.3792 5.86573 22.2708 6.07189 22.2708 6.29115V30.9947L17.2546 27.0906C17.2415 27.0808 17.2218 27.0775 17.2086 27.0677C17.1692 27.0415 17.1298 27.0252 17.0872 27.0055C17.0478 26.9892 17.0117 26.9761 16.969 26.9663C16.9263 26.9597 16.8869 26.9565 16.8442 26.9565C16.8016 26.9565 16.7589 26.9565 16.7162 26.9663C16.6768 26.9728 16.6374 26.9892 16.598 27.0055C16.5554 27.0219 16.516 27.0415 16.4766 27.0677C16.4634 27.0775 16.4437 27.0808 16.4306 27.0906L0.256065 39.6761C0.0919244 39.8038 0 39.9968 0 40.203V44.4048C0 44.6601 0.14445 44.8924 0.37753 45.0037C0.469454 45.0495 0.571218 45.0724 0.669706 45.0724C0.817433 45.0724 0.961884 45.0233 1.08335 44.9317L4.33338 42.4021V59.5952H2.34396C1.973 59.5952 1.67426 59.893 1.67426 60.2628V63.3324C1.67426 63.7022 1.973 64 2.34396 64H66.3303C66.7013 64 67 63.7022 67 63.3324V60.2628C67 59.893 66.7013 59.5952 66.3303 59.5952L66.3168 59.5998ZM62.9289 18.1965V59.5998H53.3365V13.4809L62.9289 18.1997V18.1965ZM51.9969 13.8703V59.5997H47.6734V17.6176L51.9969 13.8703ZM46.3306 7.28938V59.6027H31.8168V44.3305L32.5948 44.9359C32.7162 45.0308 32.8607 45.0766 33.0084 45.0766C33.1069 45.0766 33.2087 45.0537 33.3006 45.0079C33.5304 44.8966 33.6781 44.6643 33.6781 44.409V40.2072C33.6781 40.001 33.5829 39.808 33.4221 39.6803L31.8201 38.4335V1.63453L46.334 7.28934L46.3306 7.28938ZM29.3485 59.5993V42.4062L30.4778 43.2865V59.6L29.3485 59.5993ZM19.8115 59.5993H13.8597V51.8632H19.8115V59.5993ZM23.6032 6.64432L30.4775 1.92544V37.3857L23.6032 32.0385V6.64432ZM1.32893 40.5304L16.8337 28.4685L32.3384 40.5304V43.0404L17.2471 31.2985C17.234 31.2887 17.2143 31.2854 17.2012 31.2756C17.1618 31.2494 17.1224 31.2331 17.0797 31.2134C17.0403 31.1971 17.0042 31.184 16.9615 31.1742C16.9189 31.1676 16.8795 31.1644 16.8368 31.1644C16.7941 31.1644 16.7514 31.1644 16.7088 31.1742C16.6694 31.1807 16.63 31.1971 16.5906 31.2134C16.5479 31.2298 16.5085 31.2494 16.4691 31.2756C16.456 31.2854 16.4363 31.2887 16.4232 31.2985L1.33191 43.0404V40.5304H1.32893ZM16.8337 32.67L28.0086 41.3617V59.5961H20.8815V51.3266C20.8815 51.0321 20.6418 50.7932 20.3464 50.7932H13.3243C13.0289 50.7932 12.7892 51.0321 12.7892 51.3266V59.5961H5.66214V41.3583L16.8371 32.6667L16.8337 32.67ZM65.6464 62.669H2.99967V60.9346H65.6464V62.669ZM13.0947 43.1327H15.6028C15.8983 43.1327 16.1379 42.8938 16.1379 42.5993V40.1547C16.1379 39.8602 15.8983 39.6213 15.6028 39.6213H13.0947C12.7992 39.6213 12.5596 39.8602 12.5596 40.1547V42.5993C12.5596 42.8938 12.7992 43.1327 13.0947 43.1327ZM13.6298 40.6881H15.0676V42.0625H13.6298V40.6881ZM18.1109 43.1327H20.619C20.9144 43.1327 21.1541 42.8938 21.1541 42.5993V40.1547C21.1541 39.8602 20.9144 39.6213 20.619 39.6213H18.1109C17.8154 39.6213 17.5757 39.8602 17.5757 40.1547V42.5993C17.5757 42.8938 17.8154 43.1327 18.1109 43.1327ZM18.6492 40.6881H20.0871V42.0625H18.6492V40.6881ZM13.0946 48.0184H15.6027C15.8982 48.0184 16.1379 47.7795 16.1379 47.485V45.0405C16.1379 44.7459 15.8982 44.507 15.6027 44.507H13.0946C12.7992 44.507 12.5595 44.7459 12.5595 45.0405V47.485C12.5595 47.7795 12.7992 48.0184 13.0946 48.0184ZM13.6297 45.5739H15.0676V46.9483H13.6297V45.5739ZM18.1108 48.0184H20.6189C20.9144 48.0184 21.154 47.7795 21.154 47.485V45.0405C21.154 44.7459 20.9144 44.507 20.6189 44.507H18.1108C17.8153 44.507 17.5757 44.7459 17.5757 45.0405V47.485C17.5757 47.7795 17.8153 48.0184 18.1108 48.0184ZM18.6492 45.5739H20.087V46.9483H18.6492V45.5739ZM40.2376 13.7134L42.8081 14.4857C42.8574 14.5021 42.9099 14.5086 42.9624 14.5086C43.0773 14.5086 43.1889 14.4726 43.2809 14.4039C43.4155 14.3025 43.4975 14.1454 43.4975 13.9752V11.0496C43.4975 10.814 43.3432 10.6046 43.1167 10.5391L40.5462 9.76681C40.3821 9.71773 40.2081 9.74718 40.0702 9.84862C39.9356 9.95007 39.8536 10.1071 39.8536 10.2773V13.2029C39.8536 13.4385 40.0078 13.648 40.2344 13.7134H40.2376ZM40.9303 10.994L42.4273 11.4456V13.2553L40.9303 12.8037V10.994ZM35.0967 12.1655L37.6672 12.9378C37.7164 12.9542 37.769 12.9607 37.8215 12.9607C37.9364 12.9607 38.048 12.9247 38.1399 12.856C38.2745 12.7546 38.3566 12.5975 38.3566 12.4273V9.50171C38.3566 9.2661 38.2023 9.05666 37.9758 8.99121L35.4053 8.2189C35.2412 8.16982 35.0672 8.19927 34.9326 8.30071C34.798 8.40216 34.7159 8.55923 34.7159 8.72941V11.655C34.7159 11.8906 34.8702 12.1001 35.0967 12.1655ZM35.7894 9.44608L37.2863 9.89768V11.7074L35.7894 11.2558V9.44608ZM40.2705 19.7412L42.8409 20.3466C42.8803 20.3564 42.923 20.3597 42.9624 20.3597C43.0806 20.3597 43.1988 20.3204 43.294 20.2451C43.422 20.1437 43.4975 19.9899 43.4975 19.8263V16.9007C43.4975 16.652 43.3268 16.436 43.0839 16.3804L40.5134 15.775C40.3525 15.7357 40.1851 15.775 40.0571 15.8764C39.929 15.9778 39.8535 16.1317 39.8535 16.2953V19.2209C39.8535 19.4696 40.0242 19.6856 40.2672 19.7412L40.2705 19.7412ZM40.9303 16.9694L42.4273 17.3228V19.1521L40.9303 18.7987V16.9694ZM35.1296 18.5337L37.7 19.1391C37.7394 19.1489 37.7821 19.1522 37.8215 19.1522C37.9397 19.1522 38.0579 19.1129 38.1531 19.0376C38.2811 18.9362 38.3566 18.7824 38.3566 18.6187V15.6932C38.3566 15.4444 38.1859 15.2285 37.943 15.1728L35.3725 14.5674C35.2149 14.5314 35.0442 14.5674 34.9162 14.6689C34.7881 14.7703 34.7126 14.9241 34.7126 15.0877V18.0133C34.7126 18.262 34.8833 18.478 35.1263 18.5337L35.1296 18.5337ZM35.7894 15.7619L37.2863 16.1153V17.9446L35.7894 17.5912V15.7619ZM40.3066 25.7755L42.8771 26.2042C42.9066 26.2107 42.9362 26.2107 42.9657 26.2107C43.0905 26.2107 43.2152 26.1649 43.3104 26.0831C43.4319 25.9817 43.5008 25.8311 43.5008 25.6741V22.7485C43.5008 22.4867 43.3104 22.2642 43.0544 22.2216L40.4839 21.7929C40.3296 21.7667 40.1687 21.8093 40.0506 21.9107C39.9291 22.0122 39.8602 22.1627 39.8602 22.3198V25.2454C39.8602 25.5072 40.0506 25.7297 40.3066 25.7722L40.3066 25.7755ZM40.9304 22.9514L42.4273 23.2033V25.0457L40.9304 24.797V22.9514ZM35.1656 24.9149L37.7361 25.3436C37.7657 25.3501 37.7952 25.3501 37.8248 25.3501C37.9495 25.3501 38.0743 25.3043 38.1695 25.2225C38.2909 25.1211 38.3599 24.9705 38.3599 24.8134V21.8878C38.3599 21.6261 38.1695 21.4035 37.9134 21.361L35.3429 20.9323C35.1886 20.9061 35.0278 20.9486 34.9096 21.0501C34.7881 21.1515 34.7192 21.3021 34.7192 21.4591V24.3847C34.7192 24.6465 34.9096 24.8691 35.1657 24.9116L35.1656 24.9149ZM35.7894 22.094L37.2863 22.346V24.1884L35.7894 23.9364V22.094ZM58.8511 23.8251L60.6239 24.4993C60.6862 24.5222 60.7519 24.5353 60.8143 24.5353C60.9226 24.5353 61.0276 24.5025 61.1196 24.4404C61.264 24.3422 61.3526 24.1753 61.3526 24.0018V21.4558C61.3526 21.2333 61.2148 21.037 61.0079 20.9552L59.2352 20.281C59.071 20.2189 58.8839 20.2418 58.7395 20.3399C58.595 20.4381 58.5064 20.605 58.5064 20.7784V23.3244C58.5064 23.547 58.6443 23.7433 58.8511 23.8251ZM59.5766 21.5541L60.2758 21.8192V23.2231L59.5766 22.958V21.5541ZM55.3056 22.4802L57.0784 23.1543C57.1408 23.1772 57.2031 23.1903 57.2688 23.1903C57.3771 23.1903 57.4822 23.1576 57.5741 23.0954C57.7186 22.9973 57.8072 22.8304 57.8072 22.6569V20.1109C57.8072 19.8884 57.6693 19.692 57.4625 19.6102L55.6897 18.9361C55.5256 18.8739 55.3385 18.8968 55.194 18.995C55.0496 19.0932 54.9609 19.2601 54.9609 19.4335V21.9795C54.9609 22.202 55.0988 22.3984 55.3056 22.4802ZM56.0311 20.2092L56.7304 20.4742V21.8781L56.0311 21.6131V20.2092ZM58.8872 29.0776L60.66 29.6044C60.7092 29.6208 60.7617 29.6273 60.8143 29.6273C60.9292 29.6273 61.0408 29.5914 61.136 29.5226C61.2706 29.4212 61.3526 29.2641 61.3526 29.0939V26.5479C61.3526 26.3123 61.1983 26.1029 60.9685 26.0374L59.1958 25.5106C59.0349 25.4615 58.8576 25.4942 58.723 25.5956C58.5884 25.6971 58.5064 25.8542 58.5064 26.0243V28.5703C58.5064 28.806 58.6607 29.0154 58.8905 29.0808L58.8872 29.0776ZM59.5766 26.7377L60.2758 26.9472V28.3805L59.5766 28.171V26.7377ZM55.3417 28.0271L57.1144 28.554C57.1637 28.5703 57.2162 28.5769 57.2687 28.5769C57.3836 28.5769 57.4952 28.5409 57.5904 28.4722C57.725 28.3707 57.8071 28.2137 57.8071 28.0435V25.4975C57.8071 25.2619 57.6528 25.0524 57.423 24.987L55.6503 24.4601C55.4894 24.411 55.3121 24.4437 55.1775 24.5452C55.0429 24.6466 54.9609 24.8037 54.9609 24.9739V27.5199C54.9609 27.7555 55.1152 27.9649 55.345 28.0304L55.3417 28.0271ZM56.0311 25.684L56.7303 25.8935V27.3268L56.0311 27.1173V25.684ZM58.9298 34.3363L60.7026 34.7094C60.7387 34.7159 60.7781 34.7224 60.8142 34.7224C60.9357 34.7224 61.0538 34.6799 61.1523 34.6046C61.2771 34.5032 61.3493 34.3494 61.3493 34.189V31.643C61.3493 31.3911 61.172 31.1718 60.9258 31.1194L59.153 30.7464C58.9955 30.7137 58.8313 30.7529 58.7033 30.8544C58.5785 30.9558 58.5063 31.1096 58.5063 31.27V33.816C58.5063 34.068 58.6836 34.2872 58.9298 34.3396L58.9298 34.3363ZM59.5765 31.9245L60.2758 32.0718V33.528L59.5765 33.3808V31.9245ZM55.3843 33.5902L57.1571 33.9633C57.1932 33.9698 57.2326 33.9763 57.2687 33.9763C57.3902 33.9763 57.5084 33.9338 57.6068 33.8585C57.7316 33.7571 57.8038 33.6033 57.8038 33.4429V30.8969C57.8038 30.645 57.6265 30.4257 57.3803 30.3733L55.6076 30.0003C55.45 29.9676 55.2858 30.0068 55.1578 30.1083C55.033 30.2097 54.9608 30.3635 54.9608 30.5239V33.0699C54.9608 33.3219 55.1381 33.5411 55.3843 33.5935L55.3843 33.5902ZM56.031 31.1784L56.7303 31.3257V32.7819L56.031 32.6347V31.1784Z"/>
</mask>
<path d="M66.3168 59.5998H64.2683V17.781C64.2683 17.5258 64.1238 17.2934 63.894 17.1822L52.962 11.8055C52.87 11.7597 52.7683 11.7433 52.6665 11.7433C52.637 11.7433 52.6074 11.7499 52.5779 11.7531C52.5057 11.7629 52.4367 11.7826 52.3711 11.8186C52.3514 11.8284 52.3317 11.8251 52.3153 11.8349C52.3021 11.8415 52.2956 11.8578 52.2857 11.8677C52.2693 11.8808 52.2463 11.884 52.2299 11.9004L47.6733 15.8469V6.83108C47.6733 6.5562 47.5026 6.31077 47.2465 6.20932L31.3939 0.0341797C31.3774 0.0276344 31.361 0.0341793 31.3446 0.027634C31.2757 0.00799967 31.21 -0.00181792 31.1378 0.00145433C31.1082 0.00145433 31.0787 -0.00181792 31.0492 0.00145433C30.9572 0.0145442 30.8653 0.0472695 30.7832 0.0996305C30.78 0.102903 30.7767 0.102903 30.7734 0.102903L22.5597 5.74138C22.3792 5.86573 22.2708 6.07189 22.2708 6.29115V30.9947L17.2546 27.0906C17.2415 27.0808 17.2218 27.0775 17.2086 27.0677C17.1692 27.0415 17.1298 27.0252 17.0872 27.0055C17.0478 26.9892 17.0117 26.9761 16.969 26.9663C16.9263 26.9597 16.8869 26.9565 16.8442 26.9565C16.8016 26.9565 16.7589 26.9565 16.7162 26.9663C16.6768 26.9728 16.6374 26.9892 16.598 27.0055C16.5554 27.0219 16.516 27.0415 16.4766 27.0677C16.4634 27.0775 16.4437 27.0808 16.4306 27.0906L0.256065 39.6761C0.0919244 39.8038 0 39.9968 0 40.203V44.4048C0 44.6601 0.14445 44.8924 0.37753 45.0037C0.469454 45.0495 0.571218 45.0724 0.669706 45.0724C0.817433 45.0724 0.961884 45.0233 1.08335 44.9317L4.33338 42.4021V59.5952H2.34396C1.973 59.5952 1.67426 59.893 1.67426 60.2628V63.3324C1.67426 63.7022 1.973 64 2.34396 64H66.3303C66.7013 64 67 63.7022 67 63.3324V60.2628C67 59.893 66.7013 59.5952 66.3303 59.5952L66.3168 59.5998ZM62.9289 18.1965V59.5998H53.3365V13.4809L62.9289 18.1997V18.1965ZM51.9969 13.8703V59.5997H47.6734V17.6176L51.9969 13.8703ZM46.3306 7.28938V59.6027H31.8168V44.3305L32.5948 44.9359C32.7162 45.0308 32.8607 45.0766 33.0084 45.0766C33.1069 45.0766 33.2087 45.0537 33.3006 45.0079C33.5304 44.8966 33.6781 44.6643 33.6781 44.409V40.2072C33.6781 40.001 33.5829 39.808 33.4221 39.6803L31.8201 38.4335V1.63453L46.334 7.28934L46.3306 7.28938ZM29.3485 59.5993V42.4062L30.4778 43.2865V59.6L29.3485 59.5993ZM19.8115 59.5993H13.8597V51.8632H19.8115V59.5993ZM23.6032 6.64432L30.4775 1.92544V37.3857L23.6032 32.0385V6.64432ZM1.32893 40.5304L16.8337 28.4685L32.3384 40.5304V43.0404L17.2471 31.2985C17.234 31.2887 17.2143 31.2854 17.2012 31.2756C17.1618 31.2494 17.1224 31.2331 17.0797 31.2134C17.0403 31.1971 17.0042 31.184 16.9615 31.1742C16.9189 31.1676 16.8795 31.1644 16.8368 31.1644C16.7941 31.1644 16.7514 31.1644 16.7088 31.1742C16.6694 31.1807 16.63 31.1971 16.5906 31.2134C16.5479 31.2298 16.5085 31.2494 16.4691 31.2756C16.456 31.2854 16.4363 31.2887 16.4232 31.2985L1.33191 43.0404V40.5304H1.32893ZM16.8337 32.67L28.0086 41.3617V59.5961H20.8815V51.3266C20.8815 51.0321 20.6418 50.7932 20.3464 50.7932H13.3243C13.0289 50.7932 12.7892 51.0321 12.7892 51.3266V59.5961H5.66214V41.3583L16.8371 32.6667L16.8337 32.67ZM65.6464 62.669H2.99967V60.9346H65.6464V62.669ZM13.0947 43.1327H15.6028C15.8983 43.1327 16.1379 42.8938 16.1379 42.5993V40.1547C16.1379 39.8602 15.8983 39.6213 15.6028 39.6213H13.0947C12.7992 39.6213 12.5596 39.8602 12.5596 40.1547V42.5993C12.5596 42.8938 12.7992 43.1327 13.0947 43.1327ZM13.6298 40.6881H15.0676V42.0625H13.6298V40.6881ZM18.1109 43.1327H20.619C20.9144 43.1327 21.1541 42.8938 21.1541 42.5993V40.1547C21.1541 39.8602 20.9144 39.6213 20.619 39.6213H18.1109C17.8154 39.6213 17.5757 39.8602 17.5757 40.1547V42.5993C17.5757 42.8938 17.8154 43.1327 18.1109 43.1327ZM18.6492 40.6881H20.0871V42.0625H18.6492V40.6881ZM13.0946 48.0184H15.6027C15.8982 48.0184 16.1379 47.7795 16.1379 47.485V45.0405C16.1379 44.7459 15.8982 44.507 15.6027 44.507H13.0946C12.7992 44.507 12.5595 44.7459 12.5595 45.0405V47.485C12.5595 47.7795 12.7992 48.0184 13.0946 48.0184ZM13.6297 45.5739H15.0676V46.9483H13.6297V45.5739ZM18.1108 48.0184H20.6189C20.9144 48.0184 21.154 47.7795 21.154 47.485V45.0405C21.154 44.7459 20.9144 44.507 20.6189 44.507H18.1108C17.8153 44.507 17.5757 44.7459 17.5757 45.0405V47.485C17.5757 47.7795 17.8153 48.0184 18.1108 48.0184ZM18.6492 45.5739H20.087V46.9483H18.6492V45.5739ZM40.2376 13.7134L42.8081 14.4857C42.8574 14.5021 42.9099 14.5086 42.9624 14.5086C43.0773 14.5086 43.1889 14.4726 43.2809 14.4039C43.4155 14.3025 43.4975 14.1454 43.4975 13.9752V11.0496C43.4975 10.814 43.3432 10.6046 43.1167 10.5391L40.5462 9.76681C40.3821 9.71773 40.2081 9.74718 40.0702 9.84862C39.9356 9.95007 39.8536 10.1071 39.8536 10.2773V13.2029C39.8536 13.4385 40.0078 13.648 40.2344 13.7134H40.2376ZM40.9303 10.994L42.4273 11.4456V13.2553L40.9303 12.8037V10.994ZM35.0967 12.1655L37.6672 12.9378C37.7164 12.9542 37.769 12.9607 37.8215 12.9607C37.9364 12.9607 38.048 12.9247 38.1399 12.856C38.2745 12.7546 38.3566 12.5975 38.3566 12.4273V9.50171C38.3566 9.2661 38.2023 9.05666 37.9758 8.99121L35.4053 8.2189C35.2412 8.16982 35.0672 8.19927 34.9326 8.30071C34.798 8.40216 34.7159 8.55923 34.7159 8.72941V11.655C34.7159 11.8906 34.8702 12.1001 35.0967 12.1655ZM35.7894 9.44608L37.2863 9.89768V11.7074L35.7894 11.2558V9.44608ZM40.2705 19.7412L42.8409 20.3466C42.8803 20.3564 42.923 20.3597 42.9624 20.3597C43.0806 20.3597 43.1988 20.3204 43.294 20.2451C43.422 20.1437 43.4975 19.9899 43.4975 19.8263V16.9007C43.4975 16.652 43.3268 16.436 43.0839 16.3804L40.5134 15.775C40.3525 15.7357 40.1851 15.775 40.0571 15.8764C39.929 15.9778 39.8535 16.1317 39.8535 16.2953V19.2209C39.8535 19.4696 40.0242 19.6856 40.2672 19.7412L40.2705 19.7412ZM40.9303 16.9694L42.4273 17.3228V19.1521L40.9303 18.7987V16.9694ZM35.1296 18.5337L37.7 19.1391C37.7394 19.1489 37.7821 19.1522 37.8215 19.1522C37.9397 19.1522 38.0579 19.1129 38.1531 19.0376C38.2811 18.9362 38.3566 18.7824 38.3566 18.6187V15.6932C38.3566 15.4444 38.1859 15.2285 37.943 15.1728L35.3725 14.5674C35.2149 14.5314 35.0442 14.5674 34.9162 14.6689C34.7881 14.7703 34.7126 14.9241 34.7126 15.0877V18.0133C34.7126 18.262 34.8833 18.478 35.1263 18.5337L35.1296 18.5337ZM35.7894 15.7619L37.2863 16.1153V17.9446L35.7894 17.5912V15.7619ZM40.3066 25.7755L42.8771 26.2042C42.9066 26.2107 42.9362 26.2107 42.9657 26.2107C43.0905 26.2107 43.2152 26.1649 43.3104 26.0831C43.4319 25.9817 43.5008 25.8311 43.5008 25.6741V22.7485C43.5008 22.4867 43.3104 22.2642 43.0544 22.2216L40.4839 21.7929C40.3296 21.7667 40.1687 21.8093 40.0506 21.9107C39.9291 22.0122 39.8602 22.1627 39.8602 22.3198V25.2454C39.8602 25.5072 40.0506 25.7297 40.3066 25.7722L40.3066 25.7755ZM40.9304 22.9514L42.4273 23.2033V25.0457L40.9304 24.797V22.9514ZM35.1656 24.9149L37.7361 25.3436C37.7657 25.3501 37.7952 25.3501 37.8248 25.3501C37.9495 25.3501 38.0743 25.3043 38.1695 25.2225C38.2909 25.1211 38.3599 24.9705 38.3599 24.8134V21.8878C38.3599 21.6261 38.1695 21.4035 37.9134 21.361L35.3429 20.9323C35.1886 20.9061 35.0278 20.9486 34.9096 21.0501C34.7881 21.1515 34.7192 21.3021 34.7192 21.4591V24.3847C34.7192 24.6465 34.9096 24.8691 35.1657 24.9116L35.1656 24.9149ZM35.7894 22.094L37.2863 22.346V24.1884L35.7894 23.9364V22.094ZM58.8511 23.8251L60.6239 24.4993C60.6862 24.5222 60.7519 24.5353 60.8143 24.5353C60.9226 24.5353 61.0276 24.5025 61.1196 24.4404C61.264 24.3422 61.3526 24.1753 61.3526 24.0018V21.4558C61.3526 21.2333 61.2148 21.037 61.0079 20.9552L59.2352 20.281C59.071 20.2189 58.8839 20.2418 58.7395 20.3399C58.595 20.4381 58.5064 20.605 58.5064 20.7784V23.3244C58.5064 23.547 58.6443 23.7433 58.8511 23.8251ZM59.5766 21.5541L60.2758 21.8192V23.2231L59.5766 22.958V21.5541ZM55.3056 22.4802L57.0784 23.1543C57.1408 23.1772 57.2031 23.1903 57.2688 23.1903C57.3771 23.1903 57.4822 23.1576 57.5741 23.0954C57.7186 22.9973 57.8072 22.8304 57.8072 22.6569V20.1109C57.8072 19.8884 57.6693 19.692 57.4625 19.6102L55.6897 18.9361C55.5256 18.8739 55.3385 18.8968 55.194 18.995C55.0496 19.0932 54.9609 19.2601 54.9609 19.4335V21.9795C54.9609 22.202 55.0988 22.3984 55.3056 22.4802ZM56.0311 20.2092L56.7304 20.4742V21.8781L56.0311 21.6131V20.2092ZM58.8872 29.0776L60.66 29.6044C60.7092 29.6208 60.7617 29.6273 60.8143 29.6273C60.9292 29.6273 61.0408 29.5914 61.136 29.5226C61.2706 29.4212 61.3526 29.2641 61.3526 29.0939V26.5479C61.3526 26.3123 61.1983 26.1029 60.9685 26.0374L59.1958 25.5106C59.0349 25.4615 58.8576 25.4942 58.723 25.5956C58.5884 25.6971 58.5064 25.8542 58.5064 26.0243V28.5703C58.5064 28.806 58.6607 29.0154 58.8905 29.0808L58.8872 29.0776ZM59.5766 26.7377L60.2758 26.9472V28.3805L59.5766 28.171V26.7377ZM55.3417 28.0271L57.1144 28.554C57.1637 28.5703 57.2162 28.5769 57.2687 28.5769C57.3836 28.5769 57.4952 28.5409 57.5904 28.4722C57.725 28.3707 57.8071 28.2137 57.8071 28.0435V25.4975C57.8071 25.2619 57.6528 25.0524 57.423 24.987L55.6503 24.4601C55.4894 24.411 55.3121 24.4437 55.1775 24.5452C55.0429 24.6466 54.9609 24.8037 54.9609 24.9739V27.5199C54.9609 27.7555 55.1152 27.9649 55.345 28.0304L55.3417 28.0271ZM56.0311 25.684L56.7303 25.8935V27.3268L56.0311 27.1173V25.684ZM58.9298 34.3363L60.7026 34.7094C60.7387 34.7159 60.7781 34.7224 60.8142 34.7224C60.9357 34.7224 61.0538 34.6799 61.1523 34.6046C61.2771 34.5032 61.3493 34.3494 61.3493 34.189V31.643C61.3493 31.3911 61.172 31.1718 60.9258 31.1194L59.153 30.7464C58.9955 30.7137 58.8313 30.7529 58.7033 30.8544C58.5785 30.9558 58.5063 31.1096 58.5063 31.27V33.816C58.5063 34.068 58.6836 34.2872 58.9298 34.3396L58.9298 34.3363ZM59.5765 31.9245L60.2758 32.0718V33.528L59.5765 33.3808V31.9245ZM55.3843 33.5902L57.1571 33.9633C57.1932 33.9698 57.2326 33.9763 57.2687 33.9763C57.3902 33.9763 57.5084 33.9338 57.6068 33.8585C57.7316 33.7571 57.8038 33.6033 57.8038 33.4429V30.8969C57.8038 30.645 57.6265 30.4257 57.3803 30.3733L55.6076 30.0003C55.45 29.9676 55.2858 30.0068 55.1578 30.1083C55.033 30.2097 54.9608 30.3635 54.9608 30.5239V33.0699C54.9608 33.3219 55.1381 33.5411 55.3843 33.5935L55.3843 33.5902ZM56.031 31.1784L56.7303 31.3257V32.7819L56.031 32.6347V31.1784Z" fill="#D4AF37" stroke="white" stroke-width="0.4" mask="url(#path-1-inside-1_33_98)"/>
</svg>
