<svg width="114" height="19" viewBox="0 0 114 19" fill="none" xmlns="http://www.w3.org/2000/svg">
<path d="M17.9609 8.29523C18.504 7.88187 18.2116 7.01519 17.5292 7.01519H12.7906C12.488 7.01519 12.2184 6.82412 12.1181 6.5386L10.4938 1.91463C10.2706 1.27918 9.37193 1.27918 9.14872 1.91463L7.52402 6.53987C7.42395 6.82476 7.15522 7.0157 6.85326 7.01645L2.11196 7.02832C1.42964 7.03003 1.13938 7.89713 1.68318 8.30926L5.44076 11.1571C5.67781 11.3367 5.77839 11.6447 5.69308 11.9296L4.32444 16.5011C4.13228 17.1429 4.85145 17.6713 5.40653 17.2961L9.42206 14.5817C9.66323 14.4187 9.9793 14.4187 10.2205 14.5817L14.2359 17.296C14.791 17.6713 15.5102 17.1429 15.318 16.501L13.9492 11.9295C13.864 11.645 13.964 11.3376 14.2003 11.1578L17.9609 8.29523Z" fill="#D4AF37"/>
<path d="M41.4052 8.29523C41.9483 7.88187 41.656 7.01519 40.9735 7.01519H36.235C35.9323 7.01519 35.6627 6.82412 35.5624 6.5386L33.9382 1.91463C33.7149 1.27918 32.8163 1.27918 32.5931 1.91463L30.9684 6.53987C30.8683 6.82476 30.5996 7.0157 30.2976 7.01645L25.5563 7.02832C24.874 7.03003 24.5837 7.89713 25.1275 8.30926L28.8851 11.1571C29.1221 11.3367 29.2227 11.6447 29.1374 11.9296L27.7688 16.5011C27.5766 17.1429 28.2958 17.6713 28.8509 17.2961L32.8664 14.5817C33.1076 14.4187 33.4236 14.4187 33.6648 14.5817L37.6803 17.296C38.2353 17.6713 38.9545 17.1429 38.7623 16.501L37.3935 11.9295C37.3083 11.645 37.4084 11.3376 37.6446 11.1578L41.4052 8.29523Z" fill="#D4AF37"/>
<path d="M64.8496 8.29523C65.3926 7.88187 65.1003 7.01519 64.4178 7.01519H59.6793C59.3767 7.01519 59.107 6.82412 59.0067 6.5386L57.3825 1.91463C57.1593 1.27918 56.2606 1.27918 56.0374 1.91463L54.4127 6.53987C54.3126 6.82476 54.0439 7.0157 53.7419 7.01645L49.0006 7.02832C48.3183 7.03003 48.0281 7.89713 48.5719 8.30926L52.3294 11.1571C52.5665 11.3367 52.6671 11.6447 52.5818 11.9296L51.2131 16.5011C51.0209 17.1429 51.7401 17.6713 52.2952 17.2961L56.3107 14.5817C56.5519 14.4187 56.868 14.4187 57.1091 14.5817L61.1246 17.296C61.6797 17.6713 62.3989 17.1429 62.2067 16.501L60.8378 11.9295C60.7527 11.645 60.8527 11.3376 61.089 11.1578L64.8496 8.29523Z" fill="#D4AF37"/>
<path d="M88.2939 8.29523C88.837 7.88187 88.5446 7.01519 87.8622 7.01519H83.1236C82.821 7.01519 82.5514 6.82412 82.4511 6.5386L80.8268 1.91463C80.6036 1.27918 79.7049 1.27918 79.4817 1.91463L77.857 6.53987C77.757 6.82476 77.4882 7.0157 77.1863 7.01645L72.445 7.02832C71.7626 7.03003 71.4724 7.89713 72.0162 8.30926L75.7738 11.1571C76.0108 11.3367 76.1114 11.6447 76.0261 11.9296L74.6574 16.5011C74.4653 17.1429 75.1845 17.6713 75.7395 17.2961L79.7551 14.5817C79.9962 14.4187 80.3123 14.4187 80.5535 14.5817L84.5689 17.296C85.124 17.6713 85.8432 17.1429 85.651 16.501L84.2822 11.9295C84.197 11.645 84.297 11.3376 84.5333 11.1578L88.2939 8.29523Z" fill="#D4AF37"/>
<path d="M111.738 8.29523C112.281 7.88187 111.989 7.01519 111.306 7.01519H106.568C106.265 7.01519 105.996 6.82412 105.895 6.5386L104.271 1.91463C104.048 1.27918 103.149 1.27918 102.926 1.91463L101.301 6.53987C101.201 6.82476 100.932 7.0157 100.63 7.01645L95.8892 7.02832C95.2069 7.03003 94.9166 7.89713 95.4604 8.30926L99.218 11.1571C99.455 11.3367 99.5556 11.6447 99.4703 11.9296L98.1017 16.5011C97.9095 17.1429 98.6287 17.6713 99.1838 17.2961L103.199 14.5817C103.44 14.4187 103.757 14.4187 103.998 14.5817L108.013 17.296C108.568 17.6713 109.287 17.1429 109.095 16.501L107.726 11.9295C107.641 11.645 107.741 11.3376 107.978 11.1578L111.738 8.29523Z" fill="#D4AF37"/>
</svg>
