<svg width="293" height="87" viewBox="0 0 293 87" fill="none" xmlns="http://www.w3.org/2000/svg">
<path d="M0 85.3673C14.3809 57.2979 28.6262 29.4904 43.0036 1.42822C57.3631 29.4832 71.6191 57.3338 86 85.4282C81.2206 83.5349 76.6697 81.7241 72.1152 79.9277C66.6505 77.7726 61.1644 75.6678 55.7247 73.4446C54.9323 73.1219 54.1185 72.4047 53.7116 71.6553C50.1744 65.1436 46.73 58.5816 43.257 52.034C43.1963 51.9157 43.0999 51.8189 42.925 51.5787C40.8869 55.4513 38.8988 59.2235 36.9178 62.9957C35.3723 65.9396 33.8553 68.905 32.2634 71.8239C31.9743 72.3545 31.4746 72.9283 30.9392 73.1398C20.7308 77.2061 10.501 81.2221 0 85.3601L0 85.3673ZM42.975 14.5772C32.863 34.3957 22.9152 53.8879 12.9603 73.4016C13.1673 73.459 13.278 73.5307 13.3494 73.502C17.7504 71.8059 22.1585 70.1206 26.5417 68.3779C26.995 68.1987 27.4269 67.7182 27.6661 67.2699C29.8576 63.1858 32.0064 59.0765 34.1694 54.9744C37.0749 49.4631 39.9803 43.9517 42.9679 38.2898C43.2106 38.756 43.3676 39.0572 43.5247 39.3584C48.3719 48.5379 53.2012 57.7318 58.1091 66.8827C58.5124 67.6321 59.3548 68.3098 60.1472 68.6469C63.1454 69.927 66.2115 71.0529 69.2526 72.2326C70.5269 72.7275 71.8047 73.2044 73.3288 73.7853C63.1668 53.9596 53.1512 34.4208 42.9822 14.5808L42.975 14.5772Z" fill="#D4AF37"/>
<path d="M170.091 1.54297C174.536 1.54297 178.999 1.30093 183.422 1.62466C186.635 1.86065 188.822 4.43237 189.122 7.3036C189.473 10.6922 187.897 13.3426 184.783 14.7101C182.36 15.7721 179.837 15.9415 177.183 15.6722C177.183 18.5556 177.074 21.4389 177.277 24.298C177.316 24.8578 178.508 25.3993 179.238 25.829C179.737 26.1224 180.36 26.2102 180.929 26.3917C180.893 26.5218 180.859 26.6519 180.823 26.782H170.161C170.103 26.7034 170.049 26.6277 169.992 26.549C170.342 26.3463 170.672 26.0589 171.053 25.953C173.156 25.36 173.45 25.0605 173.456 22.9275C173.474 16.8855 173.45 10.8435 173.471 4.80148C173.477 3.33712 172.887 2.46577 171.38 2.26305C170.896 2.19649 170.433 1.97866 169.961 1.8304C170.007 1.73359 170.052 1.63676 170.097 1.53995L170.091 1.54297ZM176.996 2.77739C176.996 6.35963 177.008 9.82084 176.987 13.2821C176.981 14.0233 177.062 14.5195 177.967 14.6708C180.536 15.1004 183.14 14.0627 184.278 12.0597C185.603 9.72706 185.373 6.09036 183.785 4.26293C182.203 2.44156 179.483 1.83645 176.999 2.77437L176.996 2.77739Z" fill="white"/>
<path d="M155.705 26.8033H145.249L145.103 26.5098C145.476 26.3101 145.83 26.0257 146.226 25.9229C148.09 25.4509 148.537 25.0606 148.547 23.2695C148.586 17.0913 148.571 10.9102 148.562 4.73201C148.562 3.37354 147.987 2.47495 146.51 2.3146C145.984 2.25711 145.479 2.03927 144.961 1.89102C144.961 1.75487 144.967 1.6157 144.967 1.47955C145.324 1.41602 145.681 1.29802 146.038 1.29802C149.602 1.28592 153.167 1.24053 156.731 1.30407C160.491 1.3676 163.323 3.45523 164.004 6.52918C164.993 10.9979 162.276 14.7042 157.345 15.4727C155.672 15.7329 153.956 15.7329 152.22 15.8569C152.22 18.4679 152.18 21.203 152.238 23.9381C152.262 25.1211 153.118 25.6294 154.192 25.8563C154.758 25.9773 155.303 26.1861 155.856 26.3555C155.805 26.5038 155.756 26.652 155.705 26.8033ZM152.062 2.7533C152.062 6.40815 152.041 9.96921 152.095 13.5303C152.102 13.9024 152.531 14.5499 152.831 14.5922C155.03 14.9069 157.112 14.6195 158.715 12.8616C160.452 10.9555 160.618 6.87106 159.078 4.56258C157.771 2.60203 154.831 1.81841 152.062 2.75028V2.7533Z" fill="white"/>
<path d="M214.815 21.131C214.406 23.0068 213.995 24.8827 213.58 26.7827H195.04L194.828 26.5498C195.152 26.3289 195.448 25.9991 195.808 25.9023C198.002 25.3123 198.047 25.2851 198.047 23.0129C198.047 17.2069 198.047 11.4009 198.041 5.59487C198.041 2.9324 197.99 2.88399 195.33 2.1155C195.067 2.03987 194.834 1.86136 194.665 1.42871H212.936C213.804 3.90058 213.922 6.40573 213.166 6.85048C213.096 6.79299 212.993 6.75063 212.963 6.67802C211.846 4.03572 209.859 2.71658 207.003 2.72061C205.248 2.72061 203.493 2.72061 201.632 2.72061V12.9953C203.759 12.9953 205.85 13.1073 207.91 12.9197C208.467 12.8683 208.997 11.9455 209.423 11.3404C209.65 11.0197 209.587 10.5114 209.735 10.115C209.789 9.9698 210.071 9.85787 210.258 9.83971C210.352 9.83064 210.561 10.0696 210.564 10.1997C210.609 12.5264 210.639 14.8561 210.636 17.1827C210.636 17.3037 210.31 17.4278 210.158 17.5337C210.007 17.4368 209.88 17.4005 209.865 17.337C209.06 14.0543 209.338 14.3629 206.026 14.3659C204.694 14.3659 203.36 14.372 202.029 14.381C201.938 14.381 201.847 14.4294 201.669 14.4779C201.669 17.57 201.614 20.6863 201.702 23.7995C201.729 24.7617 202.51 25.2699 203.496 25.273C205.399 25.279 207.302 25.2669 209.205 25.2548C211.344 25.2397 212.552 23.9357 213.471 22.199C213.723 21.721 214.08 21.3004 214.388 20.8527C214.53 20.9465 214.669 21.0402 214.812 21.131H214.815Z" fill="white"/>
<path d="M121.069 26.8063H112.573C113.175 26.3524 113.453 25.9652 113.783 25.9198C115.202 25.7231 115.904 24.8155 116.4 23.5992C119.241 16.6223 122.094 9.64845 124.956 2.68063C125.28 1.89097 125.71 1.14365 126.279 0C126.702 0.904636 126.938 1.34939 127.126 1.81229C129.961 8.89508 132.799 15.9748 135.609 23.0667C136.16 24.4554 136.823 25.6535 138.487 25.8714C138.862 25.9198 139.225 26.0287 139.597 26.1104L139.016 26.7851H129.304C129.912 26.3494 130.2 25.9833 130.532 25.9349C132.057 25.7201 132.284 24.876 131.8 23.6022C131.077 21.6992 130.396 19.7779 129.616 17.8991C129.486 17.5844 128.947 17.2577 128.59 17.2486C126.26 17.1911 123.928 17.179 121.598 17.2486C121.205 17.2607 120.633 17.654 120.476 18.0171C119.749 19.663 119.096 21.3482 118.506 23.0485C117.88 24.8518 118.197 25.3449 120.079 25.8986C120.47 26.0136 120.836 26.2193 121.211 26.3857C121.162 26.5249 121.114 26.6671 121.066 26.8063H121.069ZM121.356 15.7933H128.829C127.607 12.6437 126.436 9.62727 125.129 6.26287C123.804 9.60911 122.615 12.6104 121.356 15.7933Z" fill="white"/>
<path d="M228.484 26.8035H220.382C220.745 26.4042 220.945 25.9776 221.193 25.9473C222.814 25.7567 223.522 24.6312 224.061 23.303C226.811 16.5439 229.558 9.78488 232.318 3.03188C232.693 2.11211 233.134 1.21958 233.543 0.314941C233.691 0.345197 233.842 0.372429 233.991 0.402685C234.175 0.820209 234.372 1.23168 234.541 1.65525C237.446 8.91352 240.353 16.1718 243.237 23.4361C243.724 24.6614 244.426 25.5631 245.787 25.8717C246.09 25.9412 246.323 26.3104 246.855 26.7763H237.282C237.219 26.6946 237.152 26.6159 237.089 26.5343C237.425 26.3134 237.739 25.9594 238.105 25.8959C239.446 25.6629 239.73 24.8763 239.331 23.7296C238.665 21.8053 237.996 19.8781 237.231 17.9932C237.089 17.6422 236.502 17.261 236.112 17.2519C233.782 17.1823 231.449 17.1884 229.12 17.2458C228.747 17.2549 228.185 17.5635 228.052 17.8812C227.28 19.7147 226.557 21.5693 225.922 23.4543C225.441 24.8823 225.819 25.4209 227.265 25.8505C227.743 25.9927 228.191 26.2438 228.654 26.4465C228.599 26.5645 228.542 26.6855 228.487 26.8035H228.484ZM232.656 6.23592C231.301 9.67596 230.109 12.7075 228.893 15.7996H236.375C235.149 12.6501 233.976 9.62452 232.659 6.23592H232.656Z" fill="white"/>
<path d="M252.676 1.31982H262.576L262.715 1.73734C262.289 1.92492 261.877 2.17907 261.429 2.28799C259.554 2.75695 259.357 2.96874 259.357 4.89298C259.357 10.6929 259.354 16.4959 259.375 22.2959C259.384 24.5862 260.107 25.2821 262.346 25.276C263.202 25.276 264.065 25.2095 264.912 25.2851C267.952 25.5604 270.022 24.2806 271.244 21.5062C271.399 21.1553 271.801 20.9162 272.088 20.6228C272.2 20.7075 272.312 20.7952 272.427 20.8799C272.034 22.8042 271.641 24.7284 271.223 26.7646H252.925C252.852 26.689 252.776 26.6133 252.704 26.5377C253.027 26.3108 253.321 25.981 253.681 25.8751C255.753 25.2579 255.763 25.276 255.763 23.1824C255.763 17.1434 255.763 11.1044 255.753 5.06543C255.753 2.88099 255.617 2.73275 253.472 2.1579C253.145 2.07015 252.843 1.89467 252.528 1.75852L252.673 1.31982H252.676Z" fill="white"/>
<path d="M152.263 50.0553C152.227 42.7698 157.848 36.8458 164.84 36.8065C172.604 36.7611 177.905 41.9045 177.923 49.5077C177.944 56.9807 172.398 62.814 165.24 62.8563C157.534 62.8987 152.303 57.7401 152.263 50.0583V50.0553ZM174.471 49.3473C173.959 47.9223 173.327 45.1539 172.008 42.7637C170.392 39.835 167.724 37.9683 164.136 38.2769C160.393 38.5976 158.124 40.8788 156.808 44.2553C154.799 49.4108 156.384 55.9551 160.505 59.4829C163.673 62.1937 168.038 62.0546 171.052 59.1863C173.487 56.8688 174.201 53.9098 174.471 49.3443V49.3473Z" fill="white"/>
<path d="M204.714 40.5641C204.714 47.1234 204.572 53.1321 204.838 59.1227C204.889 60.2664 206.55 61.3374 207.367 62.3207H200.161C201.023 61.64 202.236 61.1135 202.684 60.2059C203.147 59.271 202.893 57.9669 202.896 56.8263C202.908 51.7858 202.856 46.7422 202.923 41.7017C202.95 39.6413 202.88 37.8017 199.822 37.7533C202.666 36.4463 206.466 37.1694 208.003 39.1148C212.072 44.2613 216.117 49.4289 220.174 54.5874C220.631 55.1683 221.112 55.7341 221.717 56.4663C221.717 51.5437 221.717 46.8814 221.717 42.2221C221.717 39.8702 220.47 38.2112 217.975 37.245H226.561C223.009 37.7231 223.415 40.319 223.421 42.7182C223.439 49.3532 223.427 55.9852 223.118 62.8169C216.523 56.0155 211.198 48.1975 204.711 40.561L204.714 40.5641Z" fill="white"/>
<path d="M133.977 51.6683C133.977 54.0433 133.971 56.4638 133.977 58.8872C133.983 61.2925 135.886 61.6435 137.593 62.3303H127.472C131.091 62.0126 130.601 59.3199 130.616 56.9932C130.652 52.1887 130.637 47.3811 130.643 42.5765C130.647 40.0048 129.527 38.1663 127.285 37.061C130.156 37.061 133.027 37.0005 135.895 37.0852C137.559 37.1336 139.26 37.2395 140.872 37.6146C144.17 38.3801 146.091 40.8701 146.179 44.1559C146.264 47.3266 144.343 50.0678 141.066 50.8484C138.869 51.3718 136.555 51.3929 133.974 51.6713L133.977 51.6683ZM133.889 44.1982H133.938C133.938 45.7957 133.856 47.3992 133.986 48.9876C134.028 49.499 134.576 50.3431 134.972 50.3915C137.236 50.6759 139.381 50.3491 140.936 48.4007C142.43 46.5309 142.609 43.0243 141.323 40.8338C140.21 38.9338 137.871 37.8234 135.696 38.0957C134.34 38.2651 133.681 38.8218 133.859 40.3225C134.01 41.5993 133.889 42.9063 133.889 44.1982Z" fill="white"/>
<path d="M239.868 62.4176C242.054 61.395 243.146 59.5857 243.144 56.9898C243.144 50.966 243.144 44.9421 243.144 38.7186C240.975 38.7186 238.685 38.1891 236.848 38.8759C235.175 39.5022 233.992 41.4446 232.186 42.4582C232.725 40.6913 233.263 38.9243 233.802 37.1665H256.629C256.986 39.0212 257.322 40.7639 257.715 42.8001C255.985 41.2661 254.714 39.4357 253.008 38.8215C251.205 38.171 248.984 38.6763 246.669 38.6763C246.669 42.6942 246.669 46.6334 246.669 50.5757C246.669 53.0929 246.763 55.6162 246.639 58.1274C246.53 60.3088 247.135 61.7066 249.553 61.7883C249.761 61.7944 249.967 61.9457 250.164 62.0546C250.209 62.0788 250.203 62.1968 250.258 62.4267H239.868V62.4176Z" fill="white"/>
<path d="M194.004 62.4117H184.131C188.164 61.9609 187.226 58.9323 187.251 56.4877C187.293 51.8314 187.269 47.172 187.269 42.5157C187.269 40.059 186.114 38.3112 183.804 37.2725H193.725C189.853 37.9078 190.636 40.8971 190.612 43.3992C190.564 48.1341 190.573 52.8661 190.597 57.6011C190.615 61.1258 190.682 61.1803 194.007 62.4117H194.004Z" fill="white"/>
<path d="M98.18 83.3569H97.2L96.59 81.6769H93.57L92.96 83.3569H92.02L94.66 76.3569H95.54L98.18 83.3569ZM96.27 80.8269L95.08 77.5969L93.89 80.8269H96.27ZM101.181 83.3569H99.2312V76.3569H101.181C103.101 76.3569 104.611 77.8569 104.611 79.8569C104.611 81.8669 103.081 83.3569 101.181 83.3569ZM100.151 77.2269V82.4869H101.181C102.541 82.4869 103.691 81.3769 103.691 79.8569C103.691 78.3369 102.541 77.2269 101.181 77.2269H100.151ZM108.167 82.1669L110.217 76.3569H111.157L108.617 83.3569H107.657L105.127 76.3569H106.107L108.167 82.1669ZM117.237 83.3569H116.257L115.647 81.6769H112.627L112.017 83.3569H111.077L113.717 76.3569H114.597L117.237 83.3569ZM115.327 80.8269L114.137 77.5969L112.947 80.8269H115.327ZM122.708 81.7269V76.3569H123.618V83.3569H122.758L119.198 77.9869V83.3569H118.288V76.3569H119.148L122.708 81.7269ZM128.36 83.4669C126.59 83.4669 125.06 81.9169 125.06 79.8569C125.06 77.7969 126.59 76.2469 128.36 76.2469C129.89 76.2469 131.03 77.3869 131.35 78.7469H130.41C130.14 77.8769 129.44 77.1169 128.36 77.1169C127.1 77.1169 125.98 78.2369 125.98 79.8569C125.98 81.4769 127.1 82.5969 128.36 82.5969C129.47 82.5969 130.18 81.8369 130.46 80.9769H131.4C131.07 82.3169 129.93 83.4669 128.36 83.4669ZM133.71 80.1869V82.4969H137.36V83.3569H132.79V76.3569H137.26V77.2169H133.71V79.3369H136.88V80.1869H133.71ZM140.77 83.3569H138.82V76.3569H140.77C142.69 76.3569 144.2 77.8569 144.2 79.8569C144.2 81.8669 142.67 83.3569 140.77 83.3569ZM139.74 77.2269V82.4869H140.77C142.13 82.4869 143.28 81.3769 143.28 79.8569C143.28 78.3369 142.13 77.2269 140.77 77.2269H139.74ZM150.33 83.3569H149.41V77.2269H147.29V76.3569H152.45V77.2269H150.33V83.3569ZM157.949 79.3469V76.3569H158.869V83.3569H157.949V80.2169H154.559V83.3569H153.639V76.3569H154.559V79.3469H157.949ZM161.663 83.3569H160.743V76.3569H161.663V83.3569ZM167.951 81.7269V76.3569H168.861V83.3569H168.001L164.441 77.9869V83.3569H163.531V76.3569H164.391L167.951 81.7269ZM172.653 79.7669L175.663 83.3569H174.493L171.643 79.9169V83.3569H170.723V76.3569H171.643V79.6969L174.393 76.3569H175.493L172.653 79.7669ZM177.527 83.3569H176.607V76.3569H177.527V83.3569ZM183.814 81.7269V76.3569H184.724V83.3569H183.864L180.304 77.9869V83.3569H179.394V76.3569H180.254L183.814 81.7269ZM189.647 80.6669V79.8569H192.567V83.3569H191.967L191.787 82.2969C191.367 82.8869 190.547 83.4669 189.467 83.4669C187.697 83.4669 186.167 81.9169 186.167 79.8569C186.167 77.7969 187.697 76.2469 189.467 76.2469C190.987 76.2469 192.177 77.3169 192.457 78.5469H191.517C191.247 77.7969 190.557 77.1169 189.467 77.1169C188.207 77.1169 187.087 78.2369 187.087 79.8569C187.087 81.4769 188.207 82.5969 189.467 82.5969C190.697 82.5969 191.537 81.6969 191.617 80.6669H189.647Z" fill="white"/>
<path d="M201.5 81.3569C202.328 81.3569 203 80.6854 203 79.8569C203 79.0285 202.328 78.3569 201.5 78.3569C200.672 78.3569 200 79.0285 200 79.8569C200 80.6854 200.672 81.3569 201.5 81.3569Z" fill="#D4AF37"/>
<path d="M209.83 76.3569H212.19C213.48 76.3569 214.49 77.3369 214.49 78.5769C214.49 79.8369 213.48 80.8069 212.19 80.8069H210.75V83.3569H209.83V76.3569ZM210.75 79.9369H212.18C212.97 79.9369 213.57 79.3669 213.57 78.5769C213.57 77.7969 212.97 77.2269 212.18 77.2269H210.75V79.9369ZM220.878 83.3569H219.808L218.228 80.5369H216.858V83.3569H215.938V76.3569H218.498C219.788 76.3569 220.738 77.2769 220.738 78.4669C220.738 79.4069 220.108 80.1569 219.168 80.4269L220.878 83.3569ZM218.488 77.2169H216.858V79.6869H218.488C219.268 79.6869 219.818 79.1669 219.818 78.4769C219.818 77.7469 219.268 77.2169 218.488 77.2169ZM225.18 83.4669C223.41 83.4669 221.88 81.9169 221.88 79.8569C221.88 77.7969 223.41 76.2469 225.18 76.2469C226.95 76.2469 228.48 77.7969 228.48 79.8569C228.48 81.9169 226.95 83.4669 225.18 83.4669ZM225.18 82.5969C226.45 82.5969 227.56 81.4769 227.56 79.8569C227.56 78.2369 226.45 77.1169 225.18 77.1169C223.92 77.1169 222.8 78.2369 222.8 79.8569C222.8 81.4769 223.92 82.5969 225.18 82.5969ZM232.037 82.1669L234.087 76.3569H235.027L232.487 83.3569H231.527L228.997 76.3569H229.977L232.037 82.1669ZM237.077 80.1869V82.4969H240.727V83.3569H236.157V76.3569H240.627V77.2169H237.077V79.3369H240.247V80.1869H237.077ZM246.607 81.7269V76.3569H247.517V83.3569H246.657L243.097 77.9869V83.3569H242.187V76.3569H243.047L246.607 81.7269ZM256.941 83.3569H255.871L254.291 80.5369H252.921V83.3569H252.001V76.3569H254.561C255.851 76.3569 256.801 77.2769 256.801 78.4669C256.801 79.4069 256.171 80.1569 255.231 80.4269L256.941 83.3569ZM254.551 77.2169H252.921V79.6869H254.551C255.331 79.6869 255.881 79.1669 255.881 78.4769C255.881 77.7469 255.331 77.2169 254.551 77.2169ZM259.284 80.1869V82.4969H262.934V83.3569H258.364V76.3569H262.834V77.2169H259.284V79.3369H262.454V80.1869H259.284ZM266.414 83.4669C264.934 83.4669 264.034 82.5469 263.964 81.2669H264.884C264.954 82.0969 265.494 82.6269 266.424 82.6269C267.364 82.6269 267.834 82.1569 267.834 81.5369C267.834 79.7869 264.134 80.6069 264.134 78.1569C264.134 77.0669 264.954 76.2469 266.344 76.2469C267.734 76.2469 268.584 77.1869 268.644 78.3969H267.724C267.684 77.6169 267.154 77.0869 266.344 77.0869C265.514 77.0869 265.054 77.5469 265.054 78.1569C265.054 79.8569 268.754 78.9769 268.754 81.5169C268.754 82.6469 267.934 83.4669 266.414 83.4669ZM272.788 83.4669C271.218 83.4669 270.188 82.3369 270.188 80.7969V76.3569H271.108V80.7969C271.108 81.8869 271.768 82.5969 272.788 82.5969C273.798 82.5969 274.468 81.8869 274.468 80.7969V76.3569H275.388V80.7969C275.388 82.3369 274.348 83.4669 272.788 83.4669ZM281.506 83.3569H277.196V76.3569H278.116V82.4869H281.506V83.3569ZM284.414 83.3569H283.494V77.2269H281.374V76.3569H286.534V77.2269H284.414V83.3569ZM289.548 83.4669C288.068 83.4669 287.168 82.5469 287.098 81.2669H288.018C288.088 82.0969 288.628 82.6269 289.558 82.6269C290.498 82.6269 290.968 82.1569 290.968 81.5369C290.968 79.7869 287.268 80.6069 287.268 78.1569C287.268 77.0669 288.088 76.2469 289.478 76.2469C290.868 76.2469 291.718 77.1869 291.778 78.3969H290.858C290.818 77.6169 290.288 77.0869 289.478 77.0869C288.648 77.0869 288.188 77.5469 288.188 78.1569C288.188 79.8569 291.888 78.9769 291.888 81.5169C291.888 82.6469 291.068 83.4669 289.548 83.4669Z" fill="white"/>
</svg>
