<svg width="18" height="18" viewBox="0 0 18 18" fill="none" xmlns="http://www.w3.org/2000/svg">
<path d="M7.87499 11.4375C7.73028 11.4264 7.59566 11.3591 7.49999 11.25L5.24999 8.99999C5.19986 8.89502 5.1835 8.7771 5.20317 8.66245C5.22284 8.5478 5.27757 8.44207 5.35982 8.35982C5.44207 8.27757 5.5478 8.22284 5.66245 8.20317C5.7771 8.1835 5.89502 8.19986 5.99999 8.24999L7.85249 10.1025L14.25 3.74999C14.355 3.69986 14.4729 3.6835 14.5875 3.70317C14.7022 3.72284 14.8079 3.77757 14.8902 3.85982C14.9724 3.94207 15.0271 4.0478 15.0468 4.16245C15.0665 4.2771 15.0501 4.39502 15 4.49999L8.24999 11.25C8.15431 11.3591 8.01969 11.4264 7.87499 11.4375Z" fill="#333333"/>
<path d="M9.00002 15.75C7.79362 15.7481 6.60978 15.4228 5.57171 14.8082C4.53364 14.1935 3.67927 13.3119 3.09752 12.255C2.65591 11.4672 2.38265 10.5964 2.29502 9.69751C2.15776 8.37907 2.41173 7.04939 3.02525 5.87436C3.63878 4.69932 4.5847 3.73094 5.74502 3.09001C6.5328 2.6484 7.40367 2.37514 8.30252 2.28751C9.19813 2.192 10.1038 2.27875 10.965 2.54251C11.0419 2.55786 11.1147 2.5891 11.1787 2.63423C11.2428 2.67935 11.2967 2.73736 11.3371 2.80454C11.3774 2.87173 11.4033 2.9466 11.413 3.02435C11.4227 3.10211 11.416 3.18104 11.3935 3.25608C11.3709 3.33113 11.3329 3.40063 11.2819 3.46013C11.2309 3.51963 11.1681 3.56783 11.0974 3.60162C11.0267 3.63541 10.9497 3.65406 10.8714 3.65636C10.793 3.65867 10.7151 3.64458 10.6425 3.61501C9.91405 3.39555 9.14902 3.32415 8.39252 3.40501C7.64464 3.48096 6.91999 3.70805 6.26252 4.07251C5.62887 4.42208 5.06863 4.89065 4.61252 5.45251C4.14292 6.02488 3.79224 6.6852 3.58104 7.3948C3.36983 8.10439 3.30234 8.849 3.38252 9.58501C3.45847 10.3329 3.68557 11.0575 4.05002 11.715C4.3996 12.3487 4.86816 12.9089 5.43002 13.365C6.00239 13.8346 6.66271 14.1853 7.37231 14.3965C8.0819 14.6077 8.82651 14.6752 9.56252 14.595C10.3104 14.5191 11.0351 14.292 11.6925 13.9275C12.3262 13.5779 12.8864 13.1094 13.3425 12.5475C13.8121 11.9751 14.1628 11.3148 14.374 10.6052C14.5852 9.89562 14.6527 9.15102 14.5725 8.41501C14.5576 8.25886 14.6053 8.10318 14.7052 7.98222C14.805 7.86126 14.9489 7.78493 15.105 7.77001C15.2612 7.75509 15.4168 7.80281 15.5378 7.90267C15.6588 8.00254 15.7351 8.14636 15.75 8.30251C15.8866 9.62173 15.6315 10.952 15.0166 12.1271C14.4017 13.3022 13.4542 14.2701 12.2925 14.91C11.4964 15.3697 10.612 15.6559 9.69752 15.75H9.00002Z" fill="#333333"/>
</svg>
