<svg width="134" height="38" viewBox="0 0 134 38" fill="none" xmlns="http://www.w3.org/2000/svg">
<path d="M0 37.9724C6.35436 25.2744 12.6488 12.6948 19.0016 0C25.3465 12.6915 31.6456 25.2906 38 38C35.8882 37.1435 33.8773 36.3243 31.8649 35.5117C29.4502 34.5368 27.0261 33.5846 24.6226 32.5788C24.2724 32.4328 23.9128 32.1084 23.733 31.7694C22.1701 28.8236 20.6481 25.8551 19.1136 22.8931C19.0867 22.8396 19.0442 22.7958 18.9669 22.6871C18.0663 24.439 17.1878 26.1455 16.3125 27.852C15.6296 29.1837 14.9593 30.5252 14.2559 31.8456C14.1282 32.0857 13.9074 32.3453 13.6708 32.441C9.16012 34.2805 4.63999 36.0972 0 37.9692L0 37.9724ZM18.989 5.94835C14.5209 14.9139 10.1253 23.7318 5.72665 32.5594C5.81813 32.5853 5.86702 32.6178 5.89856 32.6048C7.8432 31.8375 9.79099 31.0751 11.7277 30.2868C11.928 30.2057 12.1189 29.9883 12.2245 29.7855C13.1929 27.9379 14.1424 26.079 15.0981 24.2233C16.3819 21.73 17.6657 19.2368 18.9858 16.6755C19.0931 16.8864 19.1624 17.0226 19.2318 17.1589C21.3736 21.3115 23.5075 25.4707 25.6761 29.6103C25.8543 29.9494 26.2265 30.256 26.5767 30.4084C27.9015 30.9875 29.2562 31.4969 30.6 32.0306C31.163 32.2544 31.7277 32.4702 32.4011 32.7329C27.9109 23.7642 23.4854 14.9252 18.9921 5.94997L18.989 5.94835Z" fill="black"/>
<path d="M78.8761 2.64136C81.2619 2.64136 83.6575 2.51142 86.032 2.6852C87.7568 2.81189 88.931 4.19239 89.0918 5.73368C89.2802 7.5527 88.4341 8.97543 86.7628 9.70953C85.4619 10.2796 84.1074 10.3705 82.6831 10.226C82.6831 11.7738 82.6246 13.3216 82.7334 14.8564C82.7545 15.1568 83.3944 15.4475 83.7858 15.6782C84.0538 15.8357 84.3884 15.8828 84.6937 15.9803C84.6742 16.0501 84.6564 16.1199 84.6369 16.1898H78.9135C78.8826 16.1475 78.8534 16.1069 78.8225 16.0647C79.0109 15.9559 79.1879 15.8016 79.3926 15.7448C80.5213 15.4264 80.6789 15.2656 80.6821 14.1206C80.6919 10.8773 80.6789 7.6339 80.6903 4.39053C80.6935 3.60446 80.3768 3.13671 79.568 3.0279C79.3081 2.99217 79.0596 2.87523 78.8063 2.79565C78.8306 2.74368 78.855 2.6917 78.8794 2.63973L78.8761 2.64136ZM82.5824 3.30399C82.5824 5.22695 82.5889 7.08495 82.5775 8.94294C82.5742 9.34085 82.6181 9.60721 83.1037 9.68841C84.4826 9.91904 85.8809 9.36197 86.4916 8.2868C87.203 7.0346 87.0795 5.08241 86.2269 4.10144C85.3775 3.12372 83.9174 2.7989 82.584 3.30237L82.5824 3.30399Z" fill="black"/>
<path d="M71.1535 16.2011H65.5405L65.4626 16.0436C65.6623 15.9364 65.8524 15.7837 66.0651 15.7285C67.0656 15.4752 67.3059 15.2657 67.3108 14.3042C67.3319 10.9877 67.3238 7.66964 67.3189 4.35319C67.3189 3.62396 67.0104 3.14159 66.2178 3.05551C65.9352 3.02465 65.664 2.90772 65.3862 2.82813C65.3862 2.75505 65.3895 2.68034 65.3895 2.60726C65.5811 2.57315 65.7728 2.50981 65.9644 2.50981C67.8776 2.50331 69.7908 2.47895 71.7041 2.51305C73.7228 2.54716 75.243 3.66781 75.6084 5.31791C76.1395 7.71674 74.6811 9.70629 72.0338 10.1188C71.1356 10.2585 70.2147 10.2585 69.2825 10.3251C69.2825 11.7267 69.2614 13.1949 69.2922 14.6631C69.3052 15.2981 69.7649 15.571 70.3414 15.6928C70.6451 15.7578 70.9375 15.8698 71.2347 15.9608C71.2071 16.0404 71.1811 16.1199 71.1535 16.2011ZM69.198 3.29101C69.198 5.25295 69.1867 7.16454 69.2159 9.07613C69.2192 9.27589 69.4498 9.62346 69.6106 9.64619C70.7913 9.8151 71.9087 9.66081 72.7695 8.7172C73.7017 7.694 73.7911 5.50144 72.9644 4.26224C72.2628 3.2098 70.6841 2.78915 69.198 3.28938V3.29101Z" fill="black"/>
<path d="M102.884 13.1561C102.665 14.163 102.444 15.17 102.221 16.1899H92.2685L92.1548 16.0649C92.3286 15.9463 92.4878 15.7693 92.6811 15.7173C93.8585 15.4006 93.8829 15.386 93.8829 14.1663C93.8829 11.0496 93.8829 7.93291 93.8797 4.81622C93.8797 3.387 93.852 3.36101 92.4244 2.94848C92.2831 2.90788 92.1581 2.81206 92.0671 2.57981H101.875C102.341 3.90672 102.405 5.25149 101.999 5.49024C101.961 5.45938 101.906 5.43664 101.89 5.39766C101.29 3.97926 100.223 3.27114 98.6903 3.27331C97.7483 3.27331 96.8063 3.27331 95.8075 3.27331V8.78883C96.9492 8.78883 98.0715 8.84892 99.1775 8.74822C99.4764 8.72061 99.7606 8.22526 99.9896 7.90043C100.111 7.72828 100.077 7.45542 100.157 7.24266C100.186 7.1647 100.337 7.10462 100.438 7.09487C100.488 7.09 100.6 7.2183 100.602 7.28814C100.626 8.53709 100.642 9.78766 100.641 11.0366C100.641 11.1016 100.465 11.1682 100.384 11.225C100.303 11.173 100.235 11.1535 100.227 11.1194C99.7947 9.35727 99.9441 9.52293 98.1657 9.52455C97.4511 9.52455 96.7349 9.5278 96.0202 9.53267C95.9715 9.53267 95.9228 9.55866 95.827 9.58465C95.827 11.2445 95.7977 12.9173 95.8448 14.5886C95.8595 15.105 96.2785 15.3779 96.8079 15.3795C97.8295 15.3828 98.8511 15.3763 99.8727 15.3698C101.021 15.3616 101.669 14.6616 102.163 13.7294C102.297 13.4728 102.489 13.247 102.655 13.0067C102.731 13.057 102.806 13.1074 102.882 13.1561H102.884Z" fill="black"/>
<path d="M52.5605 16.2029H48C48.3232 15.9593 48.4726 15.7514 48.6496 15.727C49.4114 15.6214 49.7882 15.1342 50.0545 14.4813C51.5796 10.7361 53.1111 6.99248 54.6475 3.25213C54.8213 2.82823 55.0519 2.42707 55.3573 1.81316C55.5846 2.29877 55.7113 2.53751 55.812 2.786C57.3338 6.58807 58.8572 10.3885 60.3661 14.1955C60.6616 14.9409 61.0173 15.5841 61.9106 15.701C62.112 15.727 62.3069 15.7855 62.5066 15.8293L62.1948 16.1915H56.9814C57.3078 15.9576 57.4621 15.7611 57.6408 15.7351C58.4593 15.6198 58.5811 15.1667 58.3213 14.4829C57.9331 13.4614 57.5677 12.43 57.1487 11.4215C57.0788 11.2525 56.7897 11.0771 56.5981 11.0723C55.3475 11.0414 54.0953 11.0349 52.8448 11.0723C52.6336 11.0788 52.3267 11.2899 52.2422 11.4848C51.8524 12.3683 51.5016 13.273 51.1849 14.1857C50.8487 15.1537 51.0192 15.4184 52.0294 15.7156C52.239 15.7773 52.4355 15.8878 52.6369 15.9771C52.6109 16.0518 52.5849 16.1282 52.5589 16.2029H52.5605ZM52.7148 10.2911H56.7264C56.0703 8.60036 55.4417 6.98111 54.7401 5.17509C54.0287 6.97137 53.3905 8.58249 52.7148 10.2911Z" fill="black"/>
<path d="M110.222 16.2011H105.872C106.067 15.9867 106.174 15.7578 106.307 15.7415C107.178 15.6392 107.558 15.035 107.847 14.322C109.323 10.6937 110.798 7.06546 112.279 3.44042C112.481 2.94669 112.718 2.46757 112.937 1.98196C113.017 1.9982 113.098 2.01282 113.177 2.02906C113.277 2.25319 113.382 2.47406 113.473 2.70144C115.032 6.59771 116.593 10.494 118.141 14.3935C118.402 15.0513 118.779 15.5352 119.51 15.7009C119.672 15.7383 119.797 15.9364 120.083 16.1865H114.945C114.91 16.1427 114.875 16.1004 114.841 16.0566C115.021 15.938 115.19 15.748 115.386 15.7139C116.106 15.5888 116.258 15.1666 116.044 14.551C115.687 13.5181 115.328 12.4835 114.917 11.4717C114.841 11.2833 114.526 11.0787 114.316 11.0738C113.065 11.0364 111.813 11.0397 110.563 11.0705C110.363 11.0754 110.061 11.2411 109.989 11.4116C109.575 12.3958 109.187 13.3914 108.846 14.4032C108.588 15.1698 108.791 15.4589 109.567 15.6895C109.824 15.7659 110.064 15.9007 110.313 16.0095C110.283 16.0728 110.252 16.1378 110.223 16.2011H110.222ZM112.461 5.16036C111.734 7.00699 111.094 8.63435 110.441 10.2942H114.457C113.8 8.6035 113.169 6.97938 112.463 5.16036H112.461Z" fill="black"/>
<path d="M123.208 2.5213H128.522L128.597 2.74543C128.368 2.84612 128.147 2.98255 127.907 3.04102C126.9 3.29276 126.794 3.40645 126.794 4.43939C126.794 7.55283 126.793 10.6679 126.804 13.7813C126.809 15.0108 127.197 15.3843 128.399 15.3811C128.858 15.3811 129.321 15.3454 129.776 15.386C131.408 15.5338 132.519 14.8468 133.175 13.3574C133.258 13.169 133.474 13.0407 133.628 12.8832C133.689 12.9287 133.749 12.9758 133.81 13.0212C133.599 14.0542 133.388 15.0871 133.164 16.1802H123.341C123.302 16.1396 123.262 16.0989 123.223 16.0583C123.397 15.9365 123.554 15.7595 123.747 15.7027C124.86 15.3713 124.865 15.3811 124.865 14.2572C124.865 11.0155 124.865 7.7737 124.86 4.53196C124.86 3.35934 124.787 3.27976 123.635 2.97118C123.46 2.92408 123.297 2.82988 123.129 2.7568L123.206 2.5213H123.208Z" fill="black"/>
<path d="M69.3059 29.315C69.2864 25.4042 72.304 22.2241 76.0573 22.203C80.2248 22.1787 83.0703 24.9397 83.08 29.0211C83.0914 33.0327 80.1144 36.164 76.2717 36.1867C72.1351 36.2094 69.327 33.4403 69.3059 29.3167V29.315ZM81.2269 28.935C80.9525 28.17 80.613 26.684 79.9049 25.4009C79.0376 23.8288 77.6051 22.8267 75.6789 22.9923C73.6699 23.1645 72.4518 24.3891 71.7453 26.2016C70.6669 28.9691 71.5179 32.4821 73.73 34.3758C75.4304 35.831 77.774 35.7563 79.3917 34.2166C80.6991 32.9726 81.0824 31.3842 81.2269 28.9334V28.935Z" fill="black"/>
<path d="M97.4617 24.2202C97.4617 27.7413 97.3853 30.9668 97.5282 34.1826C97.5559 34.7965 98.4475 35.3714 98.886 35.8993H95.0174C95.4802 35.5339 96.1315 35.2513 96.3719 34.764C96.6204 34.2622 96.4839 33.5622 96.4856 32.9499C96.4921 30.2441 96.4644 27.5367 96.5002 24.8309C96.5148 23.7249 96.4774 22.7374 94.8354 22.7114C96.3621 22.0098 98.402 22.398 99.2271 23.4423C101.412 26.2049 103.583 28.9789 105.761 31.748C106.006 32.0599 106.264 32.3636 106.589 32.7566C106.589 30.1142 106.589 27.6114 106.589 25.1102C106.589 23.8478 105.92 22.9572 104.58 22.4386H109.189C107.283 22.6952 107.5 24.0887 107.504 25.3766C107.513 28.9383 107.507 32.4984 107.341 36.1656C103.801 32.5146 100.942 28.3179 97.46 24.2186L97.4617 24.2202Z" fill="black"/>
<path d="M59.4898 30.1808C59.4898 31.4557 59.4865 32.755 59.4898 34.0559C59.493 35.3471 60.5146 35.5355 61.4306 35.9042H55.9979C57.9404 35.7336 57.6773 34.2882 57.6854 33.0392C57.7049 30.4601 57.6967 27.8794 57.7 25.3003C57.7022 23.9198 57.1012 22.9328 55.8972 22.3395C57.4385 22.3395 58.9798 22.307 60.5195 22.3525C61.4127 22.3785 62.3255 22.4353 63.1911 22.6367C64.9614 23.0476 65.9928 24.3843 66.0399 26.1481C66.0853 27.8501 65.054 29.3216 63.2951 29.7406C62.116 30.0216 60.8735 30.033 59.4881 30.1824L59.4898 30.1808ZM59.4427 26.1708H59.4687C59.4687 27.0283 59.4248 27.8891 59.4946 28.7418C59.5174 29.0163 59.8113 29.4694 60.0241 29.4954C61.239 29.648 62.3905 29.4726 63.2253 28.4267C64.0276 27.423 64.1234 25.5406 63.4331 24.3648C62.8355 23.3448 61.58 22.7488 60.4123 22.8949C59.6847 22.9859 59.3306 23.2847 59.4264 24.0903C59.5076 24.7757 59.4427 25.4773 59.4427 26.1708Z" fill="black"/>
<path d="M116.332 35.9513C117.506 35.4024 118.092 34.4312 118.091 33.0377C118.091 29.804 118.091 26.5704 118.091 23.2296C116.927 23.2296 115.697 22.9454 114.712 23.314C113.813 23.6502 113.178 24.6929 112.209 25.237C112.498 24.2885 112.787 23.34 113.076 22.3964H125.33C125.522 23.392 125.702 24.3275 125.913 25.4205C124.984 24.5971 124.302 23.6145 123.386 23.2848C122.418 22.9356 121.226 23.2069 119.983 23.2069C119.983 25.3637 119.983 27.4783 119.983 29.5945C119.983 30.9458 120.034 32.3003 119.967 33.6483C119.909 34.8193 120.234 35.5697 121.531 35.6135C121.643 35.6168 121.754 35.698 121.859 35.7564C121.884 35.7694 121.88 35.8328 121.91 35.9562H116.332V35.9513Z" fill="black"/>
<path d="M91.7122 35.9481H86.4127C88.5777 35.7061 88.0742 34.0803 88.0872 32.768C88.1099 30.2685 88.0969 27.7674 88.0969 25.2679C88.0969 23.9491 87.4771 23.0109 86.2373 22.4532H91.5628C89.4839 22.7943 89.9046 24.3989 89.8916 25.7421C89.8656 28.2838 89.8705 30.824 89.8835 33.3657C89.8932 35.2578 89.9289 35.2871 91.7138 35.9481H91.7122Z" fill="black"/>
</svg>
