<svg width="222" height="204" viewBox="0 0 222 204" fill="none" xmlns="http://www.w3.org/2000/svg">
<g clip-path="url(#clip0_1_357)">
<path d="M55.8019 110.386C74.7935 73.477 93.6149 36.9044 112.607 0C131.577 36.8959 150.407 73.5195 169.398 110.467C163.085 107.977 157.078 105.594 151.058 103.233C143.838 100.399 136.593 97.6289 129.407 94.7057C128.361 94.2802 127.288 93.3398 126.748 92.3526C122.077 83.7871 117.529 75.1577 112.938 66.5497C112.858 66.3965 112.73 66.2646 112.5 65.954C109.811 71.0473 107.182 76.0045 104.566 80.9702C102.524 84.8423 100.52 88.74 98.4181 92.5824C98.0352 93.2802 97.3758 94.0333 96.6696 94.3142C83.1832 99.6628 69.6712 104.943 55.8019 110.386ZM112.568 17.2927C99.2095 43.3552 86.0719 68.9879 72.9216 94.6503C73.1981 94.7269 73.3385 94.8205 73.4321 94.7822C79.2479 92.5526 85.0679 90.3357 90.8581 88.0422C91.458 87.8039 92.028 87.1741 92.3429 86.5869C95.2401 81.217 98.0778 75.8088 100.932 70.4176C104.77 63.1712 108.607 55.9247 112.551 48.474C112.87 49.0868 113.079 49.4825 113.287 49.8782C119.69 61.9542 126.067 74.0429 132.551 86.0721C133.083 87.055 134.193 87.9486 135.244 88.3954C139.205 90.0761 143.255 91.5611 147.271 93.11C148.952 93.7568 150.645 94.3908 152.653 95.1524C139.231 69.0815 125.999 43.385 112.568 17.2927Z" fill="#D4AF37"/>
<path d="M79.8903 121.905C86.1404 121.905 92.4162 121.565 98.6366 122.02C103.155 122.352 106.231 125.967 106.652 130.004C107.146 134.767 104.929 138.493 100.551 140.415C97.1432 141.908 93.5947 142.146 89.8633 141.768C89.8633 145.821 89.7102 149.875 89.9952 153.894C90.0505 154.681 91.7269 155.442 92.7523 156.046C93.4543 156.459 94.3308 156.582 95.1307 156.837C95.0796 157.02 95.0328 157.203 94.9818 157.386H79.9881C79.9073 157.275 79.8307 157.169 79.7498 157.058C80.2434 156.773 80.7072 156.369 81.2433 156.22C84.2003 155.387 84.613 154.966 84.6215 151.967C84.647 143.473 84.613 134.98 84.6428 126.486C84.6513 124.428 83.8216 123.203 81.7028 122.918C81.022 122.824 80.371 122.518 79.7073 122.309C79.7711 122.173 79.8349 122.037 79.8988 121.901L79.8903 121.905ZM89.5995 123.641C89.5995 128.677 89.6166 133.542 89.5868 138.408C89.5783 139.45 89.6931 140.147 90.9653 140.36C94.5776 140.964 98.2409 139.505 99.8406 136.69C101.704 133.41 101.381 128.298 99.1471 125.729C96.9219 123.169 93.0969 122.318 89.6038 123.636L89.5995 123.641Z" fill="black"/>
<path d="M59.6589 157.416H44.9546L44.7504 157.003C45.2737 156.722 45.7715 156.323 46.3289 156.178C48.9498 155.514 49.5795 154.966 49.5922 152.448C49.6475 143.763 49.6263 135.073 49.6135 126.388C49.6135 124.479 48.8051 123.215 46.7288 122.99C45.9885 122.909 45.2779 122.603 44.5504 122.395C44.5504 122.203 44.5589 122.008 44.5589 121.816C45.061 121.727 45.563 121.561 46.0651 121.561C51.0771 121.544 56.0892 121.48 61.1013 121.569C66.3899 121.659 70.3723 124.593 71.3296 128.915C72.7209 135.197 68.9002 140.407 61.965 141.487C59.6121 141.853 57.1997 141.853 54.7575 142.027C54.7575 145.698 54.7022 149.543 54.783 153.388C54.817 155.051 56.0211 155.765 57.5315 156.084C58.3272 156.254 59.093 156.548 59.8716 156.786C59.7993 156.995 59.7312 157.203 59.6589 157.416ZM54.5362 123.607C54.5362 128.745 54.5064 133.751 54.583 138.757C54.5915 139.28 55.1957 140.19 55.6169 140.25C58.7101 140.692 61.6374 140.288 63.8924 137.817C66.3346 135.137 66.5686 129.395 64.4029 126.15C62.5649 123.394 58.4293 122.292 54.5362 123.602V123.607Z" fill="black"/>
<path d="M142.783 149.441C142.209 152.078 141.63 154.715 141.048 157.386H114.975L114.677 157.058C115.132 156.748 115.549 156.284 116.055 156.148C119.14 155.319 119.204 155.281 119.204 152.086C119.204 143.924 119.204 135.763 119.195 127.601C119.195 123.858 119.123 123.79 115.383 122.709C115.013 122.603 114.685 122.352 114.447 121.744H140.141C141.362 125.219 141.528 128.74 140.465 129.366C140.367 129.285 140.222 129.225 140.18 129.123C138.608 125.409 135.814 123.554 131.798 123.56C129.33 123.56 126.862 123.56 124.246 123.56V138.004C127.237 138.004 130.177 138.161 133.074 137.898C133.857 137.825 134.602 136.528 135.202 135.677C135.521 135.227 135.431 134.512 135.64 133.955C135.716 133.751 136.112 133.593 136.376 133.568C136.508 133.555 136.801 133.891 136.806 134.074C136.869 137.345 136.912 140.62 136.908 143.89C136.908 144.061 136.448 144.235 136.235 144.384C136.023 144.248 135.844 144.197 135.823 144.107C134.691 139.493 135.082 139.926 130.423 139.931C128.551 139.931 126.675 139.939 124.803 139.952C124.675 139.952 124.548 140.02 124.297 140.088C124.297 144.435 124.22 148.816 124.343 153.192C124.382 154.545 125.479 155.259 126.867 155.264C129.543 155.272 132.219 155.255 134.895 155.238C137.903 155.217 139.601 153.384 140.894 150.942C141.247 150.27 141.75 149.679 142.184 149.05C142.383 149.181 142.579 149.313 142.779 149.441H142.783Z" fill="black"/>
<path d="M10.9509 157.42H-0.996323C-0.149633 156.782 0.241802 156.237 0.705566 156.174C2.70103 155.897 3.68813 154.621 4.3859 152.911C8.38108 143.104 12.3933 133.3 16.4183 123.505C16.8735 122.395 17.4777 121.344 18.2776 119.736C18.8732 121.008 19.2051 121.633 19.4689 122.284C23.4556 132.241 27.4465 142.193 31.3991 152.163C32.1735 154.115 33.1053 155.799 35.4454 156.106C35.973 156.174 36.4835 156.327 37.0069 156.442L36.1899 157.39H22.5323C23.3875 156.778 23.7917 156.263 24.2597 156.195C26.4041 155.893 26.7232 154.706 26.0424 152.916C25.0256 150.24 24.0682 147.54 22.9705 144.898C22.7876 144.456 22.0302 143.997 21.5282 143.984C18.252 143.903 14.9716 143.886 11.6955 143.984C11.1424 144.001 10.3383 144.554 10.117 145.064C9.09588 147.378 8.17686 149.747 7.34719 152.137C6.46646 154.672 6.91321 155.366 9.55964 156.144C10.1085 156.306 10.6233 156.595 11.1509 156.829C11.0828 157.024 11.0148 157.224 10.9467 157.42H10.9509ZM11.3551 141.938H21.8643C20.1454 137.511 18.4988 133.27 16.6608 128.541C14.7972 133.245 13.1251 137.464 11.3551 141.938Z" fill="black"/>
<path d="M162.006 157.416H150.612C151.123 156.854 151.404 156.255 151.752 156.212C154.033 155.944 155.029 154.362 155.786 152.495C159.653 142.993 163.517 133.491 167.397 123.998C167.925 122.705 168.546 121.45 169.12 120.179C169.329 120.221 169.541 120.26 169.75 120.302C170.009 120.889 170.286 121.467 170.524 122.063C174.609 132.266 178.698 142.47 182.752 152.682C183.437 154.404 184.424 155.672 186.339 156.106C186.765 156.204 187.092 156.722 187.841 157.377H174.379C174.29 157.263 174.196 157.152 174.107 157.037C174.579 156.727 175.022 156.229 175.536 156.14C177.421 155.812 177.821 154.706 177.26 153.094C176.323 150.389 175.383 147.68 174.307 145.03C174.107 144.537 173.281 144.001 172.733 143.988C169.456 143.89 166.176 143.899 162.9 143.98C162.377 143.993 161.585 144.426 161.398 144.873C160.313 147.45 159.296 150.058 158.403 152.707C157.726 154.715 158.258 155.472 160.292 156.076C160.964 156.276 161.594 156.629 162.245 156.914C162.168 157.08 162.087 157.25 162.011 157.416H162.006ZM167.874 128.502C165.967 133.338 164.291 137.6 162.581 141.947H173.103C171.38 137.519 169.729 133.266 167.878 128.502H167.874Z" fill="black"/>
<path d="M196.027 121.591H209.949L210.144 122.178C209.544 122.441 208.966 122.799 208.336 122.952C205.698 123.611 205.422 123.909 205.422 126.614C205.422 134.767 205.417 142.925 205.447 151.078C205.46 154.298 206.477 155.276 209.625 155.268C210.829 155.268 212.042 155.174 213.233 155.281C217.509 155.668 220.419 153.869 222.138 149.968C222.355 149.475 222.921 149.139 223.325 148.726C223.483 148.845 223.64 148.969 223.802 149.088C223.249 151.793 222.696 154.498 222.109 157.36H196.376C196.274 157.254 196.168 157.148 196.065 157.041C196.521 156.722 196.933 156.259 197.44 156.11C200.354 155.242 200.367 155.268 200.367 152.325C200.367 143.835 200.367 135.346 200.354 126.856C200.354 123.785 200.163 123.577 197.146 122.769C196.687 122.646 196.261 122.399 195.819 122.208L196.023 121.591H196.027Z" fill="black"/>
<path d="M54.2225 185.315C54.1715 175.073 62.0767 166.746 71.9094 166.69C82.827 166.627 90.2813 173.857 90.3068 184.545C90.3366 195.051 82.5377 203.251 72.471 203.311C61.6343 203.37 54.2778 196.118 54.2225 185.319V185.315ZM85.4522 184.32C84.7331 182.317 83.8439 178.425 81.9888 175.065C79.7168 170.948 75.9642 168.324 70.9181 168.757C65.655 169.208 62.4639 172.415 60.6131 177.162C57.788 184.409 60.0175 193.609 65.8124 198.568C70.2671 202.379 76.4067 202.184 80.6444 198.151C84.0694 194.893 85.0735 190.734 85.4522 184.316V184.32Z" fill="black"/>
<path d="M127.982 171.973C127.982 181.194 127.782 189.641 128.157 198.062C128.229 199.67 130.565 201.175 131.714 202.558H121.579C122.792 201.601 124.498 200.861 125.127 199.585C125.778 198.271 125.421 196.437 125.425 194.834C125.442 187.748 125.37 180.658 125.464 173.572C125.502 170.676 125.404 168.09 121.102 168.022C125.102 166.184 130.446 167.201 132.607 169.936C138.33 177.17 144.018 184.435 149.724 191.687C150.366 192.503 151.043 193.298 151.894 194.328C151.894 187.408 151.894 180.854 151.894 174.304C151.894 170.997 150.14 168.665 146.631 167.307H158.706C153.711 167.979 154.281 171.628 154.289 175.001C154.315 184.328 154.298 193.651 153.864 203.255C144.589 193.694 137.1 182.704 127.978 171.969L127.982 171.973Z" fill="black"/>
<path d="M28.5069 187.582C28.5069 190.921 28.4984 194.324 28.5069 197.731C28.5154 201.112 31.1916 201.605 33.5913 202.571H19.3593C24.4479 202.124 23.7587 198.339 23.7799 195.068C23.831 188.314 23.8097 181.555 23.8182 174.801C23.8239 171.186 22.2496 168.602 19.0955 167.048C23.1332 167.048 27.1709 166.963 31.2044 167.082C33.5445 167.15 35.9357 167.299 38.2034 167.826C42.8411 168.902 45.5428 172.403 45.6662 177.022C45.7853 181.479 43.0836 185.332 38.4757 186.43C35.3868 187.165 32.1319 187.195 28.5027 187.587L28.5069 187.582ZM28.3835 177.081H28.4516C28.4516 179.327 28.3367 181.581 28.5197 183.814C28.5792 184.533 29.3494 185.719 29.9067 185.787C33.0893 186.187 36.1059 185.728 38.2928 182.989C40.3946 180.36 40.6456 175.431 38.8374 172.352C37.2716 169.68 33.9827 168.12 30.9236 168.502C29.0175 168.741 28.09 169.523 28.341 171.633C28.5537 173.428 28.3835 175.265 28.3835 177.081Z" fill="black"/>
<path d="M177.418 202.694C180.493 201.256 182.029 198.713 182.026 195.064C182.026 186.595 182.026 178.127 182.026 169.378C178.975 169.378 175.754 168.634 173.172 169.6C170.819 170.48 169.155 173.211 166.615 174.635C167.373 172.152 168.13 169.668 168.887 167.197H200.989C201.491 169.804 201.964 172.254 202.517 175.116C200.083 172.96 198.296 170.386 195.896 169.523C193.36 168.609 190.238 169.319 186.983 169.319C186.983 174.967 186.983 180.505 186.983 186.047C186.983 189.586 187.115 193.133 186.94 196.663C186.787 199.729 187.638 201.694 191.037 201.809C191.331 201.818 191.62 202.03 191.897 202.184C191.961 202.218 191.952 202.383 192.029 202.707H177.418V202.694Z" fill="black"/>
<path d="M112.921 202.685H99.0375C104.709 202.052 103.39 197.794 103.424 194.358C103.484 187.812 103.45 181.262 103.45 174.716C103.45 171.263 101.826 168.806 98.578 167.345H112.529C107.083 168.239 108.185 172.441 108.151 175.958C108.083 182.615 108.096 189.267 108.13 195.923C108.155 200.878 108.249 200.954 112.925 202.685H112.921Z" fill="black"/>
</g>
<defs>
<clipPath id="clip0_1_357">
<rect width="222" height="204" fill="white"/>
</clipPath>
</defs>
</svg>
