<svg width="64" height="64" viewBox="0 0 64 64" fill="none" xmlns="http://www.w3.org/2000/svg">
<path d="M25.1426 0.25H38.8564C44.3894 0.25 48.8924 4.75189 48.8926 10.2852V16.25H60.5713C62.3246 16.25 63.75 17.6754 63.75 19.4287V60.5713C63.75 62.3246 62.3246 63.75 60.5713 63.75H3.42871C1.67538 63.75 0.25 62.3246 0.25 60.5713V19.4287C0.25 17.6754 1.67538 16.25 3.42871 16.25H15.1074V10.2852C15.1076 4.75224 19.6093 0.25 25.1426 0.25ZM61.5938 32.5625L54.8047 36.2686C51.9955 37.7971 48.822 38.6064 45.6211 38.6064H37.4629V42.2852C37.4628 43.407 36.5496 44.3203 35.4277 44.3203H28.5703C27.4485 44.3202 26.5352 43.407 26.5352 42.2852V38.6064H18.377C15.1788 38.6064 12.0024 37.7971 9.19629 36.2686L2.4043 32.5625L2.03516 32.3613V60.5703C2.03516 61.3398 2.65828 61.9638 3.42773 61.9639H60.5703C61.3399 61.9639 61.9629 61.3397 61.9629 60.5703V32.3604L61.5938 32.5625ZM28.3203 42.5352H35.6777V32.8926H28.3203V42.5352ZM3.42773 18.0352C2.65807 18.0352 2.03613 18.6595 2.03613 19.4287V30.3252L2.16602 30.3965L10.0518 34.6992C12.5943 36.0849 15.4753 36.8183 18.377 36.8184H26.5352V33.1396C26.5352 32.0177 27.4493 31.1035 28.5713 31.1035H35.4277C36.5497 31.1035 37.4639 32.0177 37.4639 33.1396V36.8184H45.6221C48.5266 36.8184 51.4048 36.0878 53.9502 34.6992H53.9512L61.833 30.3965L61.9639 30.3252V19.4287C61.9639 18.6592 61.3398 18.0352 60.5703 18.0352H3.42773ZM25.1426 2.03516C20.5927 2.03516 16.8927 5.73579 16.8926 10.2852V16.25H19.6787V10.2852C19.6788 7.27198 22.1294 4.82144 25.1426 4.82129H38.8574C41.8706 4.82144 44.3212 7.27198 44.3213 10.2852V16.25H47.1074V10.2852C47.1073 5.73534 43.4058 2.03516 38.8564 2.03516H25.1426ZM25.1426 6.60645C23.1132 6.60645 21.464 8.25579 21.4639 10.2852V16.25H42.5352V10.2852C42.535 8.2558 40.8858 6.60646 38.8564 6.60645H25.1426Z" fill="#D4AF37" stroke="white" stroke-width="0.5"/>
</svg>
