<svg width="55" height="64" viewBox="0 0 55 64" fill="none" xmlns="http://www.w3.org/2000/svg">
<path d="M18.2112 64C17.8285 64 17.4468 63.9048 17.1049 63.7135L10.0341 59.7585C9.57569 59.504 9.00848 59.504 8.55004 59.7585L3.37126 62.6558C2.66321 63.053 1.82112 63.0452 1.1189 62.6325C0.418615 62.2206 0 61.4903 0 60.6783V3.32318C0 2.5112 0.418615 1.78081 1.1189 1.369C1.82112 0.959123 2.66418 0.949411 3.37223 1.34666L8.53838 4.24005C8.99488 4.49647 9.56598 4.49647 10.0225 4.24005L17.0826 0.287009C17.7664 -0.0956695 18.6152 -0.0956695 19.2971 0.287009L26.3543 4.24005C26.8098 4.4955 27.3799 4.49647 27.8393 4.24005L34.9024 0.286037C35.5842 -0.0946983 36.4311 -0.0956696 37.1149 0.286037L44.1867 4.24103C44.651 4.50132 45.2046 4.50132 45.6708 4.24103L50.8496 1.34472C51.5596 0.946497 52.4007 0.95621 53.101 1.36705C53.8022 1.7779 54.2208 2.50829 54.2208 3.32124V60.6763C54.2208 61.4893 53.8022 62.2206 53.101 62.6315C52.3997 63.0414 51.5586 63.052 50.8476 62.6529L45.6815 59.7604C45.2259 59.504 44.6558 59.5021 44.1964 59.7595L37.1363 63.7125C36.4535 64.0962 35.6056 64.0932 34.9228 63.7115L27.8665 59.7604C27.4081 59.504 26.8389 59.503 26.3824 59.7595L19.3175 63.7125C18.9766 63.9038 18.5939 64 18.2112 64ZM9.29208 58.8222C9.67379 58.8222 10.0565 58.9174 10.3974 59.1077L17.4692 63.0627C17.9276 63.3191 18.4958 63.3201 18.9523 63.0618L26.0182 59.1087C26.6981 58.726 27.548 58.727 28.2317 59.1097L35.288 63.0608C35.7445 63.3182 36.3127 63.3182 36.7711 63.0618L43.8322 59.1087C44.516 58.726 45.3648 58.727 46.0467 59.1097L51.2128 62.0021C51.6878 62.2692 52.254 62.2644 52.7231 61.9875C53.1942 61.7117 53.4749 61.2222 53.4749 60.6763V3.32124C53.4749 2.77636 53.1942 2.28587 52.7241 2.011C52.253 1.73419 51.6887 1.73031 51.2138 1.99546L46.034 4.89177C45.3522 5.27445 44.5043 5.27445 43.8225 4.89177L36.7517 0.936784C36.2923 0.682313 35.7241 0.683284 35.2666 0.936784L28.2036 4.8908C27.5188 5.27348 26.6719 5.27348 25.9891 4.8908L18.9329 0.937756C18.4754 0.681342 17.9062 0.680371 17.4468 0.937756L10.3877 4.8908C9.7039 5.27348 8.85696 5.27348 8.17319 4.8908L3.00801 1.9974C2.53209 1.73128 1.96681 1.73711 1.49672 2.01295C1.02663 2.28878 0.745931 2.7783 0.745931 3.32318V60.6783C0.745931 61.2232 1.02663 61.7127 1.49672 61.9885C1.96584 62.2644 2.53111 62.2702 3.00801 62.005L8.18679 59.1077C8.52673 58.9174 8.90941 58.8222 9.29208 58.8222Z" fill="#D4AF37"/>
<path d="M9.26288 18.7527C6.88814 18.7527 4.95532 16.8199 4.95532 14.4451C4.95532 12.0704 6.88814 10.1376 9.26288 10.1376C11.6434 10.1376 13.5801 12.0704 13.5801 14.4451C13.5801 16.8199 11.6434 18.7527 9.26288 18.7527ZM9.26288 10.8835C7.29898 10.8835 5.70125 12.4812 5.70125 14.4451C5.70125 16.409 7.29898 18.0068 9.26288 18.0068C11.2326 18.0068 12.8342 16.409 12.8342 14.4451C12.8342 12.4812 11.2326 10.8835 9.26288 10.8835Z" fill="#D4AF37"/>
<path d="M9.04049 15.7942C8.94531 15.7942 8.84915 15.7583 8.77631 15.6854L7.80019 14.7093C7.65547 14.5636 7.65547 14.3266 7.80019 14.181C7.94588 14.0353 8.18287 14.0353 8.32856 14.181L9.04049 14.8939L10.713 13.2233C10.8587 13.0776 11.0947 13.0786 11.2404 13.2243C11.3861 13.3699 11.3851 13.606 11.2394 13.7517L9.30371 15.6854C9.23086 15.7583 9.13568 15.7942 9.04049 15.7942Z" fill="#D4AF37"/>
<path d="M48.8914 12.1306H16.8757C16.6697 12.1306 16.5027 11.9635 16.5027 11.7576C16.5027 11.5517 16.6697 11.3846 16.8757 11.3846H48.8914C49.0973 11.3846 49.2644 11.5517 49.2644 11.7576C49.2644 11.9635 49.0973 12.1306 48.8914 12.1306Z" fill="#D4AF37"/>
<path d="M48.8914 14.8181H16.8757C16.6697 14.8181 16.5027 14.651 16.5027 14.4451C16.5027 14.2392 16.6697 14.0721 16.8757 14.0721H48.8914C49.0973 14.0721 49.2644 14.2392 49.2644 14.4451C49.2644 14.651 49.0973 14.8181 48.8914 14.8181Z" fill="#D4AF37"/>
<path d="M48.8914 17.5056H16.8757C16.6697 17.5056 16.5027 17.3385 16.5027 17.1326C16.5027 16.9267 16.6697 16.7596 16.8757 16.7596H48.8914C49.0973 16.7596 49.2644 16.9267 49.2644 17.1326C49.2644 17.3385 49.0973 17.5056 48.8914 17.5056Z" fill="#D4AF37"/>
<path d="M9.26288 30.6458C6.88814 30.6458 4.95532 28.7129 4.95532 26.3382C4.95532 23.9635 6.88814 22.0306 9.26288 22.0306C11.6434 22.0306 13.5801 23.9635 13.5801 26.3382C13.5801 28.7129 11.6434 30.6458 9.26288 30.6458ZM9.26288 22.7766C7.29898 22.7766 5.70125 24.3743 5.70125 26.3382C5.70125 28.3021 7.29898 29.8998 9.26288 29.8998C11.2326 29.8998 12.8342 28.3021 12.8342 26.3382C12.8342 24.3743 11.2326 22.7766 9.26288 22.7766Z" fill="#D4AF37"/>
<path d="M9.04049 27.6873C8.94531 27.6873 8.84915 27.6514 8.77631 27.5785L7.80019 26.6024C7.65547 26.4567 7.65547 26.2197 7.80019 26.074C7.94588 25.9283 8.18287 25.9283 8.32856 26.074L9.04049 26.7869L10.713 25.1164C10.8587 24.9707 11.0947 24.9716 11.2404 25.1173C11.3861 25.263 11.3851 25.499 11.2394 25.6447L9.30371 27.5785C9.23086 27.6514 9.13568 27.6873 9.04049 27.6873Z" fill="#D4AF37"/>
<path d="M48.8914 24.0238H16.8757C16.6697 24.0238 16.5027 23.8567 16.5027 23.6508C16.5027 23.4449 16.6697 23.2778 16.8757 23.2778H48.8914C49.0973 23.2778 49.2644 23.4449 49.2644 23.6508C49.2644 23.8567 49.0973 24.0238 48.8914 24.0238Z" fill="#D4AF37"/>
<path d="M48.8914 26.7113H16.8757C16.6697 26.7113 16.5027 26.5442 16.5027 26.3383C16.5027 26.1324 16.6697 25.9653 16.8757 25.9653H48.8914C49.0973 25.9653 49.2644 26.1324 49.2644 26.3383C49.2644 26.5442 49.0973 26.7113 48.8914 26.7113Z" fill="#D4AF37"/>
<path d="M48.8914 29.3986H16.8757C16.6697 29.3986 16.5027 29.2316 16.5027 29.0257C16.5027 28.8198 16.6697 28.6527 16.8757 28.6527H48.8914C49.0973 28.6527 49.2644 28.8198 49.2644 29.0257C49.2644 29.2316 49.0973 29.3986 48.8914 29.3986Z" fill="#D4AF37"/>
<path d="M27.1099 56.2338C20.244 56.2338 14.6583 50.6481 14.6583 43.7822C14.6583 36.9056 20.244 31.3112 27.1099 31.3112C33.9757 31.3112 39.5615 36.9056 39.5615 43.7822C39.5615 50.6481 33.9757 56.2338 27.1099 56.2338ZM27.1099 32.0571C20.6558 32.0571 15.4042 37.3165 15.4042 43.7822C15.4042 50.2362 20.6558 55.4879 27.1099 55.4879C33.5639 55.4879 38.8155 50.2362 38.8155 43.7822C38.8155 37.3165 33.5639 32.0571 27.1099 32.0571Z" fill="#D4AF37"/>
<path d="M27.1109 52.8207C22.1273 52.8207 18.0723 48.7657 18.0723 43.7821C18.0723 38.7879 22.1273 34.7251 27.1109 34.7251C32.0944 34.7251 36.1485 38.7879 36.1485 43.7821C36.1485 48.7657 32.0944 52.8207 27.1109 52.8207ZM27.1109 35.471C22.5381 35.471 18.8182 39.1997 18.8182 43.7821C18.8182 48.3548 22.5381 52.0748 27.1109 52.0748C31.6826 52.0748 35.4025 48.3548 35.4025 43.7821C35.4025 39.1997 31.6826 35.471 27.1109 35.471Z" fill="#D4AF37"/>
<path d="M30.3484 47.9392C30.0859 48.338 29.7099 48.6563 29.2236 48.895C28.7372 49.1327 28.1733 49.2709 27.5328 49.3097L27.5357 50.2973C27.5357 50.4177 27.496 50.5181 27.4175 50.5967C27.3388 50.6763 27.2344 50.716 27.1051 50.716C26.9838 50.716 26.8844 50.6802 26.8048 50.6056C26.7262 50.531 26.6864 50.4296 26.6864 50.2993L26.6844 49.3117C25.6809 49.248 24.744 49.0332 23.8708 48.6632C23.7594 48.6175 23.6659 48.5409 23.5913 48.4345C23.5178 48.3281 23.4799 48.2147 23.4799 48.0933C23.4789 47.9362 23.5316 47.7989 23.639 47.6826C23.7455 47.5662 23.8817 47.5075 24.0488 47.5075C24.1423 47.5075 24.2298 47.5254 24.3133 47.5632C25.0663 47.8944 25.855 48.0784 26.6814 48.1142L26.6735 44.9127C26.0419 44.7466 25.5109 44.5676 25.0792 44.3736C24.6466 44.1797 24.2865 43.9042 23.998 43.5471C23.7097 43.1911 23.5645 42.7386 23.5635 42.1905C23.5624 41.7092 23.6798 41.2626 23.9156 40.8538C24.1513 40.4451 24.5024 40.1059 24.9717 39.8354C25.4393 39.5659 26.0021 39.4018 26.6616 39.3451L26.6595 38.3704C26.6586 38.25 26.6974 38.1476 26.7769 38.0641C26.8555 37.9795 26.9549 37.9387 27.0754 37.9377C27.1967 37.9377 27.2982 37.9785 27.3827 38.0621C27.4662 38.1456 27.5079 38.248 27.5079 38.3684L27.5099 39.3292C28.42 39.364 29.2276 39.5151 29.9337 39.7827C30.1932 39.8742 30.3236 40.0602 30.3246 40.3386C30.3246 40.4878 30.2739 40.6211 30.1724 40.7424C30.07 40.8638 29.9357 40.9235 29.7686 40.9244C29.7139 40.9244 29.6393 40.9065 29.5458 40.8687C28.9143 40.648 28.237 40.5246 27.5129 40.4978L27.5209 43.8107C28.1893 43.9669 28.7433 44.1379 29.1848 44.3229C29.6264 44.5069 29.9954 44.7814 30.2938 45.1484C30.5911 45.5144 30.7413 45.9988 30.7423 46.6015C30.7433 47.0938 30.612 47.5394 30.3484 47.9392ZM25.299 43.0359C25.6103 43.2587 26.0678 43.4477 26.6716 43.6038L26.6645 40.5415C26.1076 40.6171 25.6621 40.7872 25.3288 41.0528C24.9957 41.3183 24.8286 41.6644 24.8296 42.0911C24.8305 42.4998 24.9867 42.8141 25.299 43.0359ZM29.4892 46.5209C29.4892 46.1589 29.323 45.8784 28.9929 45.6795C28.6636 45.4816 28.1733 45.2946 27.5229 45.1196L27.5298 48.1122C28.8387 48.0168 29.4911 47.4857 29.4892 46.5209Z" fill="#D4AF37"/>
</svg>
