<svg width="66" height="64" viewBox="0 0 66 64" fill="none" xmlns="http://www.w3.org/2000/svg">
<path fill-rule="evenodd" clip-rule="evenodd" d="M7.9567 54.4592H49.1405V50.9517C49.1405 49.0166 47.568 47.4443 45.6329 47.4443L11.4642 47.4443C9.53034 47.4443 7.9561 49.0166 7.9561 50.9517L7.9567 54.4592ZM49.8602 55.8982H7.23698C6.83971 55.8982 6.51718 55.5759 6.51718 55.1787L6.51727 50.9517C6.51727 48.2236 8.73549 46.0053 11.4636 46.0053L45.6329 46.0052C48.3614 46.0052 50.5793 48.2237 50.5793 50.9517L50.5799 55.1786C50.5799 55.5759 50.2585 55.8982 49.8602 55.8982Z" fill="#D4AF37"/>
<path fill-rule="evenodd" clip-rule="evenodd" d="M1.57579 62.561H55.5214L54.3633 55.8983H2.73407L1.57579 62.561ZM56.3773 64H0.719848C0.50668 64 0.305654 63.9071 0.169297 63.7437C0.033198 63.5818 -0.0255728 63.3675 0.0103356 63.1576L1.41929 55.0559C1.47935 54.7112 1.77906 54.4594 2.12832 54.4594L54.9683 54.4594C55.3189 54.4594 55.6171 54.7112 55.6771 55.0559L57.0862 63.1576C57.1226 63.3674 57.0651 63.5818 56.9288 63.7437C56.7914 63.9071 56.5901 64 56.3773 64Z" fill="#D4AF37"/>
<path fill-rule="evenodd" clip-rule="evenodd" d="M51.4462 60.1253H5.65144C5.25412 60.1253 4.93155 59.8031 4.93155 59.4059C4.93172 59.0086 5.25378 58.6864 5.65101 58.6864L51.4462 58.6863C51.8435 58.6863 52.1654 59.0086 52.1654 59.4059C52.1659 59.803 51.8432 60.1253 51.4462 60.1253Z" fill="#D4AF37"/>
<path fill-rule="evenodd" clip-rule="evenodd" d="M21.451 23.8889C21.3283 23.8889 21.205 23.8575 21.0912 23.7915C20.7482 23.5936 20.6295 23.153 20.8289 22.8082L32.08 3.31926C32.2797 2.97602 32.7183 2.85762 33.063 3.05697C33.4082 3.25476 33.5246 3.69548 33.3269 4.03876L22.0749 23.5292C21.9414 23.7585 21.6998 23.889 21.451 23.8889ZM32.3046 30.1559C32.1832 30.1559 32.0603 30.1244 31.9463 30.0585C31.6018 29.8606 31.4846 29.42 31.6826 29.0752L42.9349 9.58626C43.1346 9.24297 43.5734 9.12457 43.9183 9.32392C44.2617 9.52176 44.3799 9.96248 44.1805 10.3057L32.9299 29.7961C32.7963 30.0254 32.5533 30.1559 32.3046 30.1559Z" fill="#D4AF37"/>
<path fill-rule="evenodd" clip-rule="evenodd" d="M62.4107 37.8333C62.2771 37.8333 62.1434 37.7958 62.028 37.7224L36.6935 21.7799C36.3576 21.5685 36.2571 21.1249 36.4684 20.7876C36.68 20.4518 37.1234 20.35 37.4607 20.5628L62.1618 36.1065L64.1941 32.5871L38.4472 18.845C38.0979 18.6591 37.9643 18.2229 38.1516 17.8723C38.3393 17.5214 38.7752 17.3881 39.1245 17.5755L65.527 31.6683C65.699 31.7596 65.8261 31.9171 65.8802 32.1045C65.9344 32.2918 65.9086 32.4942 65.8112 32.6621L63.0339 37.4736C62.9369 37.6429 62.773 37.7644 62.584 37.8124C62.5274 37.8258 62.4686 37.8333 62.4107 37.8333Z" fill="#D4AF37"/>
<path fill-rule="evenodd" clip-rule="evenodd" d="M58.5417 35.3977C58.4103 35.3977 58.2778 35.3618 58.1579 35.2868C56.3368 34.1416 56.1928 32.1481 56.9932 30.7706C57.7985 29.3826 59.6073 28.5072 61.5034 29.5205C61.8543 29.7078 61.9876 30.144 61.8001 30.4947C61.6128 30.844 61.1767 30.9774 60.826 30.79C59.6764 30.1754 58.6975 30.7016 58.2373 31.4931C57.8167 32.217 57.7441 33.3262 58.9253 34.0697C59.2615 34.281 59.363 34.7247 59.1502 35.062C59.014 35.2793 58.7798 35.3977 58.5417 35.3977Z" fill="#D4AF37"/>
<path fill-rule="evenodd" clip-rule="evenodd" d="M20.7259 25.866L30.3336 31.4135L31.3231 29.6987L21.7147 24.1511L20.7259 25.866ZM30.596 33.1162C30.4747 33.1162 30.3499 33.0848 30.2375 33.0188L19.3829 26.7518C19.0376 26.5539 18.9207 26.1133 19.1185 25.7686L20.8291 22.8081C21.0267 22.4649 21.4658 22.3465 21.8106 22.5459L32.6661 28.8128C32.8307 28.9072 32.952 29.0647 33.0015 29.249C33.0512 29.4334 33.024 29.6298 32.9296 29.7961L31.2193 32.7565C31.0863 32.9873 30.8446 33.1162 30.596 33.1162Z" fill="#D4AF37"/>
<path fill-rule="evenodd" clip-rule="evenodd" d="M33.6867 3.41662L43.2952 8.9642L44.284 7.24943L34.6762 1.70193L33.6867 3.41662ZM43.5575 10.6655C43.4361 10.6655 43.3111 10.6355 43.1987 10.5695L32.3437 4.30253C31.9991 4.10323 31.8819 3.66402 32.0798 3.31927L33.7906 0.358902C33.8851 0.193956 34.0417 0.0741321 34.2262 0.0246613C34.4111 -0.0248096 34.6069 0.000636253 34.7718 0.0966071L45.627 6.36351C45.7922 6.45794 45.9132 6.61539 45.9628 6.79975C46.0128 6.98407 45.9852 7.18049 45.8908 7.3454L44.1808 10.3057C44.0493 10.5365 43.8058 10.6655 43.5575 10.6655Z" fill="#D4AF37"/>
</svg>
